<svg width="50" height="50" viewBox="0 0 50 50" fill="none" xmlns="http://www.w3.org/2000/svg">
<path d="M35.4459 20.6421C37.3239 20.6421 38.7323 19.266 38.7323 17.4311C38.7323 15.5962 37.3239 14.2201 35.4459 14.2201C33.568 14.2201 32.1595 15.5962 32.1595 17.4311C32.1595 19.266 33.8027 20.6421 35.4459 20.6421ZM35.4459 16.2843C36.1502 16.2843 36.6196 16.743 36.6196 17.4311C36.6196 18.1192 36.1502 18.5779 35.4459 18.5779C34.7417 18.5779 34.2722 18.1192 34.2722 17.4311C34.2722 16.743 34.7417 16.2843 35.4459 16.2843Z" fill="#0E7BCB"/>
<path d="M22.5352 33.7156C22.0657 33.7156 21.5962 34.1743 21.5962 34.633C21.5962 35.0917 22.0657 35.5504 22.5352 35.5504C23.0046 35.5504 23.4741 35.0917 23.4741 34.633C23.4741 33.9449 23.0046 33.7156 22.5352 33.7156Z" fill="#0E7BCB"/>
<path d="M19.7183 26.6056C19.2488 26.6056 18.7793 27.0643 18.7793 27.523C18.7793 27.9817 19.2488 28.4405 19.7183 28.4405C20.1877 28.4405 20.6572 27.9817 20.6572 27.523C20.6572 27.0643 20.1877 26.6056 19.7183 26.6056Z" fill="#0E7BCB"/>
<path d="M28.4037 14.9082C28.8732 14.9082 29.3427 14.4495 29.3427 13.9908C29.3427 13.5321 28.8732 13.0734 28.4037 13.0734C27.9342 13.0734 27.4647 13.5321 27.4647 13.9908C27.4647 14.4495 27.9342 14.9082 28.4037 14.9082Z" fill="#0E7BCB"/>
<path d="M36.6197 35.0917C38.0281 33.7156 39.2018 33.4862 40.6103 33.0275C41.5492 32.7981 42.2535 32.5688 43.1924 32.1101C43.6619 31.8807 43.8967 31.1926 43.6619 30.7339C43.4272 30.2752 42.7229 30.0458 42.2535 30.2752C41.5492 30.7339 40.6103 30.9633 39.906 31.1926C38.2628 31.6514 36.8544 32.1101 35.2112 33.7156C33.568 35.3211 33.0985 36.9266 32.629 38.3027C32.3943 38.9908 32.1596 39.4495 31.9248 39.9082C29.5774 40.1376 27.4647 42.2018 27.4647 44.7247C25.8215 45.6422 23.9436 46.1009 22.3004 45.8715C22.5351 44.7247 22.3004 43.578 21.5962 42.6605C23.4741 41.9725 25.1173 41.055 26.5258 39.6789C28.6384 37.6147 29.1079 35.7798 29.8121 34.1743C30.2816 32.7981 30.7511 31.6514 31.9248 30.2752C33.3333 28.8991 34.507 28.6697 35.9154 28.211C37.5586 27.7523 39.4366 27.0642 41.5492 25C44.6009 22.0183 45.7746 17.6605 44.8356 13.7614C47.4178 16.2844 48.5915 20.1835 47.4178 23.6238C47.183 24.0825 47.6525 24.7706 48.122 24.7706H48.3567C48.8262 24.7706 49.2957 24.5413 49.2957 24.0825C50.4694 19.9541 49.2957 15.3669 46.0093 12.3853L41.3145 7.79814C38.9671 5.50456 35.9154 4.12842 32.3943 4.12842C29.1079 4.12842 25.8215 5.50456 23.4741 7.79814C21.5962 9.86236 21.1267 11.6972 20.4225 13.3027C19.953 14.6789 19.7182 15.8257 18.3098 17.2018C17.3708 18.1192 16.4319 18.578 15.2582 19.0367C15.0234 19.0367 14.7887 19.266 14.5539 19.266C12.676 19.7247 10.7981 20.4128 8.92013 22.477C7.74642 23.6238 7.04219 24.7706 6.33797 26.3761C5.86848 26.1468 5.16426 25.9174 4.46003 25.9174C2.11261 25.9174 0.23468 27.7523 0.23468 30.0458C0.23468 32.3394 2.11261 34.1743 4.46003 34.1743C4.92952 34.1743 5.399 34.1743 5.86848 33.9449C6.10322 35.3211 6.80745 36.4679 7.51168 37.6147C6.80745 38.3027 6.33797 39.4495 6.10322 40.5963C5.399 43.8073 7.51168 47.0183 11.0328 47.7064C11.737 47.9358 12.676 47.9358 13.3802 47.7064C14.0844 48.8532 15.2582 49.7706 16.6666 50C16.9013 50 17.3708 50 17.6056 50C18.5445 50 19.4835 49.7706 20.4225 49.0825C20.892 48.6238 21.3614 48.1651 21.8309 47.7064C22.0657 47.7064 22.5351 47.7064 22.7699 47.7064C24.6478 47.7064 26.5258 47.2477 28.169 46.5596C28.8732 48.3945 30.7511 49.7706 32.8638 49.7706C35.6807 49.7706 38.0281 47.477 38.0281 44.7247C38.0281 42.4312 36.6197 40.5963 34.507 39.9082C34.7417 39.4495 34.7417 38.9908 34.9765 38.5321C34.9765 37.3853 35.2112 36.2385 36.6197 35.0917ZM4.22529 32.1101C3.05158 32.1101 2.11261 31.1926 2.11261 30.0458C2.11261 28.8991 3.05158 27.9816 4.22529 27.9816C5.399 27.9816 6.33797 28.8991 6.33797 30.0458C6.33797 31.1926 5.399 32.1101 4.22529 32.1101ZM30.2816 28.8991C29.8121 29.3578 29.5774 29.8165 29.3427 30.0458C29.1079 29.5871 28.8732 29.1284 28.8732 28.6697C28.8732 27.2936 30.0469 26.3761 31.2206 26.3761C31.9248 26.3761 32.629 26.6055 32.8638 27.0642C32.1596 27.5229 31.2206 27.9816 30.2816 28.8991ZM32.629 6.19264C33.8028 6.19264 34.9765 6.422 36.1502 6.88071C35.4459 8.0275 34.2722 8.71557 33.0985 8.71557C31.6901 8.71557 30.5164 7.79814 29.8121 6.65135C30.7511 6.422 31.6901 6.19264 32.629 6.19264ZM15.0234 21.1009C15.2582 21.3302 15.2582 21.789 15.2582 22.0183C15.2582 23.3945 14.0844 24.5413 12.676 24.5413C11.737 24.5413 11.0328 24.0825 10.5633 23.3945C12.2065 22.0183 13.615 21.5596 15.0234 21.1009ZM20.1877 45.6422C20.1877 45.8715 19.953 46.1009 19.953 46.3302C19.7182 46.789 19.2488 47.2477 18.7793 47.477C18.0751 48.1651 17.3708 48.1651 16.6666 48.1651C15.7276 47.9358 14.7887 47.2477 14.5539 46.3302C14.0844 45.8715 13.8497 45.6422 13.3802 45.6422H13.1455C12.4413 45.8715 11.737 45.8715 11.0328 45.8715C8.68538 45.4128 7.27693 43.3486 7.74642 41.055C7.98116 39.6789 9.15487 38.3027 10.5633 37.844C10.7981 37.844 11.0328 37.6147 11.2675 37.3853C11.5023 37.1559 11.5023 36.9266 11.2675 36.6972C11.0328 36.2385 11.0328 35.7798 11.2675 35.3211C11.5023 34.633 11.737 34.4036 12.4413 34.1743C12.9107 33.9449 13.615 33.9449 14.0844 34.1743C15.2582 34.633 15.7276 35.7798 15.2582 36.9266C15.2582 37.1559 15.0234 37.3853 14.7887 37.6147C14.5539 37.844 14.5539 38.0734 14.5539 38.3027C14.5539 38.5321 14.5539 38.7614 14.7887 38.9908C15.4929 39.6789 15.9624 40.5963 15.9624 41.5137C15.9624 41.9725 16.4319 42.4312 16.9013 42.4312C17.1361 42.4312 17.3708 42.4312 17.6056 42.4312C19.4835 42.6605 20.4225 44.0367 20.1877 45.6422ZM19.953 41.055C19.4835 40.8257 18.7793 40.3669 18.0751 40.3669C17.8403 40.3669 17.8403 40.3669 17.6056 40.3669C17.3708 39.6789 16.9013 38.7614 16.4319 38.0734C16.4319 37.844 16.6666 37.844 16.6666 37.6147C17.6056 35.5504 16.6666 33.2569 14.5539 32.3394C13.615 31.8807 12.4413 31.8807 11.5023 32.3394C10.5633 32.7981 9.85909 33.4862 9.38961 34.4036C9.15487 35.0917 8.92013 35.7798 9.15487 36.2385C9.15487 36.2385 8.92013 36.2385 8.92013 36.4679C8.2159 35.3211 7.74642 34.1743 7.51168 32.7981C8.2159 32.1101 8.68538 31.1926 8.68538 30.0458C8.68538 29.1284 8.45064 28.4403 7.98116 27.7523C8.45064 26.8348 8.92013 25.688 9.62435 24.7706C10.5633 25.688 11.737 26.3761 13.1455 26.3761C15.7276 26.3761 17.6056 24.3119 17.6056 22.0183C17.6056 21.5596 17.6056 20.8715 17.3708 20.4128C17.8403 19.9541 18.7793 19.4954 19.7182 18.578C21.3614 16.9725 21.8309 15.3669 22.3004 13.9908C22.7699 12.3853 23.2394 11.0092 24.8826 9.40365C25.8215 8.48622 26.7605 8.0275 27.6995 7.33943C28.6384 9.40365 30.5164 10.5504 32.8638 10.5504C34.9765 10.5504 36.8544 9.40365 37.7934 7.56878C38.4976 8.0275 39.2018 8.71557 39.906 9.17429C43.8967 13.0734 43.8967 19.7247 39.906 23.6238C38.2628 25.2293 36.6197 25.688 35.2112 26.1468C35.2112 26.1468 35.2112 26.1468 34.9765 26.1468C34.2722 25 32.8638 24.0825 31.2206 24.0825C28.8732 24.0825 26.7605 25.9174 26.7605 28.4403C26.7605 29.5871 27.23 30.7339 28.169 31.6514C27.9342 32.1101 27.6995 32.7981 27.4647 33.2569C26.9952 34.8624 26.5258 36.2385 24.8826 37.844C23.7089 39.6789 21.8309 40.5963 19.953 41.055ZM35.6807 44.9541C35.6807 46.5596 34.2722 47.9358 32.629 47.9358C30.9859 47.9358 29.5774 46.5596 29.5774 44.9541C29.5774 43.3486 30.9859 41.9725 32.629 41.9725C34.2722 41.9725 35.6807 43.3486 35.6807 44.9541Z" fill="#0E7BCB"/>
<path d="M8.45063 15.367C10.5633 15.367 12.4412 13.5322 12.4412 11.4679C12.4412 9.40371 10.5633 7.56885 8.45063 7.56885C6.33796 7.56885 4.46002 9.40371 4.46002 11.4679C4.46002 13.7615 6.33796 15.367 8.45063 15.367ZM8.45063 9.63307C9.62434 9.63307 10.3286 10.5505 10.3286 11.4679C10.3286 12.6147 9.3896 13.3028 8.45063 13.3028C7.27692 13.3028 6.5727 12.3854 6.5727 11.4679C6.5727 10.5505 7.51166 9.63307 8.45063 9.63307Z" fill="#0E7BCB"/>
<path d="M17.6056 6.65138C19.4835 6.65138 20.892 5.27523 20.892 3.44037C20.892 1.37615 19.4835 0 17.6056 0C15.7277 0 14.0845 1.37615 14.0845 3.21101C14.0845 5.04587 15.7277 6.65138 17.6056 6.65138ZM17.6056 2.06422C18.3098 2.06422 19.014 2.75229 19.014 3.44037C19.014 4.12844 18.3098 4.58716 17.6056 4.58716C16.9014 4.58716 16.1971 4.12844 16.1971 3.21101C16.1971 2.52294 16.9014 2.06422 17.6056 2.06422Z" fill="#0E7BCB"/>
<path d="M46.0094 35.5505C43.8967 35.5505 42.2535 37.156 42.2535 39.2203C42.2535 41.2845 43.8967 42.89 46.0094 42.89C48.122 42.89 49.7652 41.2845 49.7652 39.2203C50 37.156 48.122 35.5505 46.0094 35.5505ZM46.0094 41.0551C45.0704 41.0551 44.1314 40.1377 44.1314 39.2203C44.1314 38.3028 45.0704 37.3854 46.0094 37.3854C46.9483 37.3854 47.8873 38.3028 47.8873 39.2203C47.8873 40.1377 47.1831 41.0551 46.0094 41.0551Z" fill="#0E7BCB"/>
<path d="M25.5868 23.3944C27.4647 23.3944 28.8732 22.0183 28.8732 20.1834C28.8732 18.3486 27.4647 16.9724 25.5868 16.9724C23.7089 16.9724 22.3004 18.3486 22.3004 20.1834C22.3004 22.0183 23.9436 23.3944 25.5868 23.3944ZM25.5868 19.0366C26.291 19.0366 26.7605 19.4953 26.7605 20.1834C26.7605 20.8715 26.291 21.3302 25.5868 21.3302C24.8826 21.3302 24.4131 20.8715 24.4131 20.1834C24.4131 19.4953 24.8826 19.0366 25.5868 19.0366Z" fill="#0E7BCB"/>
<path d="M45.3051 27.7521C45.0704 28.2109 45.3051 28.8989 45.7746 29.1283C46.0093 29.1283 46.0093 29.1283 46.2441 29.1283C46.7136 29.1283 46.9483 28.8989 47.183 28.6696C47.4178 28.2109 47.183 27.5228 46.7136 27.2934C46.2441 27.0641 45.7746 27.0641 45.3051 27.7521Z" fill="#0E7BCB"/>
</svg>
