<svg width="84" height="82" viewBox="0 0 84 82" fill="none" xmlns="http://www.w3.org/2000/svg">
<path d="M72.6777 71.7865H70.0508V81.4164H72.6777V71.7865Z" fill="#0E7BCB"/>
<path d="M81.7259 45.815C81.434 45.5232 80.8502 45.5232 80.5584 45.815L63.3375 53.1103V46.9822C63.3375 46.3986 63.0457 46.1068 62.7538 45.815C62.4619 45.5232 61.8782 45.5232 61.5863 45.815L42.6142 53.9858H38.8198V43.4805C38.8198 41.7296 37.3604 40.2705 35.6091 40.2705H31.231C29.4797 40.2705 28.0203 41.7296 28.0203 43.4805V53.9858H22.4746L18.9721 18.0926C18.9721 17.5089 18.3883 16.9253 17.5127 16.9253H9.34009C8.75634 16.9253 7.8807 17.5089 7.8807 18.0926L5.25382 53.9858H3.79442C3.21067 53.9858 2.62691 54.5694 2.33503 55.1531L0 79.9573C0 80.2491 -4.45806e-06 80.8328 0.291874 81.1246C0.583752 81.4164 0.875634 81.7082 1.45939 81.7082H8.46447V69.452C8.46447 68.5765 9.04823 67.9929 9.92386 67.9929H18.0964C18.9721 67.9929 19.5558 68.5765 19.5558 69.452V81.4164H48.4518V70.3274C48.4518 69.452 49.0355 68.8684 49.9112 68.8684H55.4568C56.3325 68.8684 56.9162 69.452 56.9162 70.3274V81.4164H68.0076V70.3274C68.0076 69.452 68.5914 68.8684 69.467 68.8684H75.0127C75.8883 68.8684 76.4721 69.452 76.4721 70.3274V81.4164H82.0177C82.8934 81.4164 83.4771 80.8328 83.4771 79.9573V46.9822C82.3096 46.6904 82.0178 46.1068 81.7259 45.815ZM8.1726 53.9858L10.7995 19.5516H16.637L19.264 53.9858H8.1726ZM41.1548 78.4982H27.1447L24.8096 56.6121H41.1548V78.4982ZM54.8731 64.7829H49.3274C48.4518 64.7829 47.868 64.1993 47.868 63.3239V58.0712C47.868 57.1958 48.4518 56.6121 49.3274 56.6121H54.8731C55.7487 56.6121 56.3325 57.1958 56.3325 58.0712V63.6157C56.3325 64.1993 55.7487 64.7829 54.8731 64.7829ZM75.5964 63.6157C75.5964 64.4911 75.0127 65.0748 74.137 65.0748H68.5914C67.7157 65.0748 67.132 64.4911 67.132 63.6157V58.0712C67.132 57.1958 67.7157 56.6121 68.5914 56.6121H74.137C75.0127 56.6121 75.5964 57.1958 75.5964 58.0712V63.6157Z" fill="#0E7BCB"/>
<path d="M16.3452 70.3273H10.7994V81.4163H16.3452V70.3273Z" fill="#0E7BCB"/>
<path d="M78.2233 5.25267C77.9314 4.96085 77.9314 4.96085 77.9314 4.96085C77.6395 4.66904 77.0558 4.37722 76.472 4.66904C75.8883 4.96085 75.5964 5.25267 75.5964 5.8363C75.5964 8.75445 75.0126 11.089 73.8451 11.9644C72.9695 12.8399 71.802 12.548 71.802 12.548H71.5101C68.2994 12.548 65.0888 8.46263 64.2131 6.71174C62.7537 4.66904 61.2944 2.91815 59.5431 1.75089C57.2081 0.291815 55.7487 0 55.1649 0C50.4949 0 47.868 2.0427 46.1167 3.79359C45.8248 3.50178 45.8248 3.20996 45.5329 3.20996C43.4898 1.16726 40.571 1.16726 39.9872 1.45907C34.1497 1.45907 30.939 3.50178 29.7715 4.08541H27.4365C16.3451 4.08541 14.0101 11.6726 13.7182 11.9644C13.4263 12.548 13.7182 13.1317 14.0101 13.4235C14.302 13.7153 14.8857 14.0071 15.4695 13.7153C16.9289 13.1317 21.5989 11.6726 23.6421 12.8399C24.2258 13.1317 24.5177 13.4235 24.5177 14.0071C24.8096 17.8007 27.4365 24.8043 34.1497 24.8043C35.3172 24.8043 40.571 25.0961 42.906 23.0534C46.9923 27.1388 50.203 27.7224 51.6624 27.7224C51.9542 27.7224 51.9543 27.7224 52.2461 27.7224C56.6243 27.7224 60.1268 24.5125 61.8781 22.7616C65.0888 25.0961 68.0075 25.0961 68.5913 24.8043C68.8832 24.8043 69.1751 24.8043 69.7588 24.8043C74.7208 24.8043 78.807 21.8861 80.5583 17.5089C82.3096 13.1317 81.434 8.46263 78.2233 5.25267Z" fill="#0E7BCB"/>
<path d="M30.0634 60.6975C29.1878 60.6975 28.604 61.2811 28.604 62.1566V73.2456C28.604 74.121 29.1878 74.7046 30.0634 74.7046C30.939 74.7046 31.5228 74.121 31.5228 73.2456V62.1566C31.5228 61.2811 30.939 60.6975 30.0634 60.6975Z" fill="#0E7BCB"/>
<path d="M37.0685 60.6975C36.1929 60.6975 35.6091 61.2811 35.6091 62.1566V73.2456C35.6091 74.121 36.1929 74.7046 37.0685 74.7046C37.9442 74.7046 38.528 74.121 38.528 73.2456V62.1566C38.2361 61.2811 37.6523 60.6975 37.0685 60.6975Z" fill="#0E7BCB"/>
<path d="M53.4138 71.7864H50.7869V81.4163H53.4138V71.7864Z" fill="#0E7BCB"/>
<path d="M53.4138 59.2384H50.7869V61.8647H53.4138V59.2384Z" fill="#0E7BCB"/>
<path d="M72.6777 59.2384H70.0508V61.8647H72.6777V59.2384Z" fill="#0E7BCB"/>
</svg>
