<svg width="85" height="82" viewBox="0 0 85 82" fill="none" xmlns="http://www.w3.org/2000/svg">
<path d="M27.7284 11.3809H4.67004V20.7189L10.2157 16.6335C10.5076 16.3417 11.0914 16.3417 11.3832 16.6335L20.4315 22.7616L27.7284 19.2599V11.3809ZM19.8477 19.5517C18.3883 19.5517 17.2208 18.6762 16.637 17.509C16.0533 16.0499 16.3452 14.5908 17.5127 13.7154C18.3883 12.8399 20.1396 12.5481 21.3071 12.8399C22.7665 13.4236 23.3503 14.5908 23.3503 16.0499C23.3503 17.8008 21.599 19.5517 19.8477 19.5517Z" fill="#0E7BCB"/>
<path d="M19.8478 14.5907C19.264 14.5907 18.6802 14.8825 18.3884 15.4661C18.0965 16.0498 18.3884 16.6334 18.6802 16.9252C18.9721 17.217 19.8477 17.5088 20.1396 17.217C20.7234 16.9252 21.0153 16.3416 21.0153 15.758C21.3071 15.1743 20.7234 14.5907 19.8478 14.5907Z" fill="#0E7BCB"/>
<path d="M16.3452 0L11.3833 4.96085H21.5991L16.3452 0Z" fill="#0E7BCB"/>
<path d="M29.7716 26.847L32.6904 29.1815V8.46265L29.7716 10.7972V26.847Z" fill="#0E7BCB"/>
<path d="M28.6041 9.33812L31.231 7.29541H1.45947L4.08637 9.33812H28.6041Z" fill="#0E7BCB"/>
<path d="M19.8477 24.5124L11.0914 18.3843L4.67004 23.3451V26.5551H27.7284V21.5942L20.7233 24.8042H20.4315C20.1396 24.8042 19.8477 24.8042 19.8477 24.5124Z" fill="#0E7BCB"/>
<path d="M28.604 28.5979H4.08624L1.75122 30.6406H30.939L28.604 28.5979Z" fill="#0E7BCB"/>
<path d="M2.62689 10.7972L0 8.46265V29.1815L2.62689 26.847V10.7972Z" fill="#0E7BCB"/>
<path d="M66.2563 13.7153H57.7918L54.873 23.9289H69.4669L66.2563 13.7153Z" fill="#0E7BCB"/>
<path d="M62.7539 24.8043H60.7107V37.936H62.7539V24.8043Z" fill="#0E7BCB"/>
<path d="M23.3503 53.6939C24.226 53.6939 24.8097 53.1103 25.1016 52.2348C25.3935 51.3594 24.8097 50.4839 23.9341 50.1921C23.0585 49.9003 22.1828 50.1921 21.891 50.7757C21.3072 51.3594 21.5991 52.5266 22.1828 53.1103C22.1828 53.4021 22.7666 53.6939 23.3503 53.6939Z" fill="#0E7BCB"/>
<path d="M42.3223 53.6939C43.1979 53.6939 43.7817 53.1103 44.0735 52.2348C44.3654 51.3594 43.7817 50.4839 42.906 50.1921C42.0304 49.9003 41.1548 50.1921 40.8629 50.7757C40.2791 51.3594 40.571 52.5266 41.1548 53.1103C41.4466 53.4021 42.0304 53.6939 42.3223 53.6939Z" fill="#0E7BCB"/>
<path d="M8.17261 43.7723V53.9858C11.3833 54.8612 13.4264 57.4876 13.4264 60.6975V64.1993H72.6777V60.9893C72.6777 57.7794 74.7208 55.153 77.9315 54.2776V43.7723C77.9315 42.605 77.3477 41.1459 76.4721 40.2705C75.5965 39.395 74.4289 38.8114 72.9696 38.8114H12.8427C11.6751 38.8114 10.2157 39.395 9.34011 40.2705C8.46448 41.4377 8.17261 42.605 8.17261 43.7723ZM56.6244 46.9822C56.9163 46.6904 57.7919 46.6904 58.0838 46.9822L59.5432 48.4413C60.7107 47.8577 62.1701 47.8577 63.3376 48.4413L64.797 46.9822C65.6726 46.1068 67.132 47.5659 66.2563 48.4413L64.797 49.9004C65.3807 51.0676 65.3807 52.5267 64.797 53.694L66.2563 55.153C66.5482 55.4449 66.5482 56.3203 66.2563 56.6121C65.9645 56.9039 65.0888 56.9039 64.797 56.6121L63.3376 55.153C62.1701 55.7367 60.7107 55.7367 59.5432 55.153L58.0838 56.6121C57.7919 56.9039 56.9163 56.9039 56.6244 56.6121C56.3325 56.3203 56.3325 55.4449 56.6244 55.153L58.0838 53.694C57.5 52.5267 57.5 51.0676 58.0838 49.9004L56.6244 48.4413C56.3325 48.1495 56.3325 47.274 56.6244 46.9822ZM37.6523 46.9822C37.9442 46.6904 38.8198 46.6904 39.1117 46.9822L40.5711 48.4413C41.7386 47.8577 43.198 47.8577 44.3655 48.4413L45.8249 46.9822C46.7005 46.1068 48.1599 47.5659 47.2843 48.4413L45.8249 49.9004C46.4086 51.0676 46.4086 52.5267 45.8249 53.694L47.2843 55.153C47.5761 55.4449 47.5761 56.3203 47.2843 56.6121C46.9924 56.9039 46.1168 56.9039 45.8249 56.6121L44.3655 55.153C43.198 55.7367 41.7386 55.7367 40.5711 55.153L39.1117 56.6121C38.2361 57.4876 36.7767 56.0285 37.6523 55.153L39.1117 53.694C38.5279 52.5267 38.5279 51.0676 39.1117 49.9004L37.6523 48.4413C37.0685 48.1495 37.0685 47.274 37.6523 46.9822ZM18.3883 46.9822C18.6802 46.6904 19.5559 46.6904 19.8477 46.9822L21.3071 48.4413C22.4746 47.8577 23.934 47.8577 25.1015 48.4413L26.5609 46.9822C27.4366 46.1068 28.896 47.5659 28.0203 48.4413L26.5609 49.9004C27.1447 51.0676 27.1447 52.5267 26.5609 53.694L28.0203 55.153C28.3122 55.4449 28.3122 56.3203 28.0203 56.6121C27.7284 56.9039 26.8528 56.9039 26.5609 56.6121L25.1015 55.153C23.934 55.7367 22.4746 55.7367 21.3071 55.153L19.8477 56.6121C18.9721 57.4876 17.5127 56.0285 18.3883 55.153L19.8477 53.694C19.264 52.5267 19.264 51.0676 19.8477 49.9004L18.3883 48.4413C18.0965 48.1495 18.0965 47.274 18.3883 46.9822Z" fill="#0E7BCB"/>
<path d="M61.5863 53.6939C62.4619 53.6939 63.0457 53.1103 63.3376 52.2348C63.6295 51.3594 63.0457 50.4839 62.1701 50.1921C61.2944 49.9003 60.4188 50.1921 60.1269 50.7757C59.5432 51.3594 59.835 52.5266 60.4188 53.1103C60.7107 53.4021 61.0025 53.6939 61.5863 53.6939Z" fill="#0E7BCB"/>
<path d="M79.9746 77.9146H70.3427V82H79.9746V77.9146Z" fill="#0E7BCB"/>
<path d="M79.3909 56.0284C78.2234 56.0284 76.764 56.6121 75.8884 57.4875C75.0128 58.363 74.429 59.5302 74.429 60.9893V65.3665C74.429 65.9501 73.8453 66.5338 73.2615 66.5338H11.9671C11.3833 66.5338 10.7996 65.9501 10.7996 65.3665V60.9893C10.7996 58.363 8.75642 56.3203 6.12952 56.3203C3.50262 56.3203 1.45947 58.363 1.45947 60.9893V75.8719H84.061V60.9893C84.061 59.822 83.4772 58.363 82.6016 57.4875C81.726 56.6121 80.5584 56.0284 79.3909 56.0284Z" fill="#0E7BCB"/>
<path d="M15.1776 77.9146H5.54565V82H15.1776V77.9146Z" fill="#0E7BCB"/>
</svg>
