<svg width="50" height="50" viewBox="0 0 50 50" fill="none" xmlns="http://www.w3.org/2000/svg">
<g clip-path="url(#clip0)">
<path d="M34.633 38.0734C34.4036 38.0734 34.4036 38.0734 34.1743 38.3028C33.2568 37.156 31.8807 36.2385 30.5046 35.7798L31.422 33.7156L33.4862 31.6514C35.0917 30.0459 35.0917 27.5229 33.4862 25.9174L31.1926 23.6239L42.4312 12.3853L46.789 8.02752L48.8532 5.9633C50.2293 4.58716 50.2293 2.29358 48.8532 0.688073C48.3945 0.458716 47.477 0 46.3302 0C45.4128 0 44.4954 0.458716 43.8073 1.14679L41.7431 3.21101L37.3853 7.56881L34.8624 10.0917C34.4036 10.3211 34.4036 11.0092 34.8624 11.4679C35.3211 11.9266 35.7798 11.9266 36.2385 11.4679L38.0734 9.63303L40.5963 12.156L30.0458 22.7064L27.5229 20.1835L30.0458 17.6606C30.5046 17.2018 30.5046 16.7431 30.0458 16.2844C29.5871 15.8257 29.1284 15.8257 28.6697 16.2844L26.1468 18.8073L23.8532 16.5138C23.1651 15.8257 22.0183 15.367 21.1009 15.367C20.1835 15.367 19.0367 15.8257 18.3486 16.5138L16.2844 18.578L12.1559 20.6422L8.48621 22.7064L2.29354 25.9174C0.917398 26.6055 0.229324 27.5229 -3.35984e-05 28.4404C-0.229391 29.3578 0.229324 30.2752 1.37611 31.422L4.12841 34.1743L10.0917 40.1376L16.055 46.1009L18.8073 48.8532C19.7247 49.7706 20.6422 50.2294 21.3302 50.2294C21.5596 50.2294 21.5596 50.2294 21.789 50.2294C22.7064 50 23.6238 49.3119 24.3119 47.9358L24.7706 47.0184C25 47.2477 25.2293 47.4771 25.4587 47.7064C26.6055 48.3945 27.7523 48.8532 29.1284 48.8532C29.5871 48.8532 30.0458 48.8532 30.5046 48.6239C31.422 48.3945 32.1101 48.1651 32.7981 47.7064C33.9449 48.6239 35.5504 48.8532 36.9266 48.6239C38.3027 48.3945 39.4495 47.4771 40.3669 46.3303C41.055 45.1835 41.5137 43.8073 41.055 42.4312C40.3669 39.4495 37.6146 37.6147 34.633 38.0734ZM46.3302 2.06422C46.789 2.06422 47.2477 2.29358 47.477 2.52294C48.1651 3.21101 48.1651 4.3578 47.477 5.04587L46.1009 6.42202L43.5779 3.89908L44.9541 2.52294C45.4128 2.06422 45.8715 2.06422 46.3302 2.06422ZM39.4495 8.25688L42.4312 5.27523L44.9541 7.79817L41.9724 10.7798L39.4495 8.25688ZM24.3119 37.6147L10.3211 23.6239L12.3853 22.4771L26.1468 36.2385C25.4587 36.6973 25 37.156 24.3119 37.6147ZM16.5137 20.6422L29.3578 33.4862L28.211 35.7798L14.2202 21.789L16.5137 20.6422ZM19.7247 17.8899C19.9541 17.4312 20.6422 17.2018 21.1009 17.2018C21.5596 17.2018 22.2477 17.4312 22.477 17.8899L32.1101 27.5229C33.0275 28.4404 33.0275 29.5872 32.1101 30.5046L30.7339 31.8807L18.1192 19.2661L19.7247 17.8899ZM22.477 47.0184C22.2477 47.7064 21.789 48.1651 21.5596 48.1651C21.3302 48.1651 20.8715 47.9358 20.4128 47.4771L18.1192 45.1835L20.1835 41.055C20.4128 40.5963 20.1835 39.9083 19.7247 39.6789C19.266 39.4495 18.5779 39.6789 18.3486 40.1376L16.5137 43.8073L12.1559 39.4495L15.1376 36.2385C15.5963 35.7798 15.5963 35.3211 15.1376 34.8624C14.9082 34.4037 14.2202 34.4037 13.7614 34.8624L10.7798 38.0734L6.42199 33.7156L10.0917 31.8807C10.5504 31.6514 10.7798 30.9633 10.5504 30.5046C10.0917 29.8165 9.63299 29.5872 8.94492 29.8165L4.81648 32.1101L2.5229 29.8165C2.06419 29.3578 1.83483 28.8991 1.83483 28.6697C1.83483 28.4404 2.29354 27.9817 2.98162 27.5229L8.48621 24.5413L23.1651 39.2202C22.477 40.5963 22.2477 41.9725 22.7064 43.3486C22.9357 44.0367 23.1651 44.7248 23.3945 45.1835L22.477 47.0184ZM38.5321 45.1835C38.0734 45.8716 37.3853 46.3303 36.4679 46.5596C35.3211 46.789 34.1743 46.3303 33.4862 45.6422C33.0275 45.1835 32.5688 45.1835 32.1101 45.6422C31.422 46.1009 30.7339 46.5596 30.0458 46.789C28.8991 47.0184 27.7523 46.789 26.6055 46.1009C25.688 45.4128 25 44.4954 24.5413 43.1193C24.0825 40.5963 25.688 38.3028 27.9816 37.844C28.211 37.844 28.6697 37.844 28.8991 37.844C30.5046 37.844 32.1101 38.7615 32.7981 40.1376C33.0275 40.5963 33.7156 40.8257 34.1743 40.5963C34.4036 40.367 34.633 40.367 35.0917 40.367C36.9266 39.9083 38.7614 41.055 38.9908 42.8899C39.2201 43.578 38.9908 44.4954 38.5321 45.1835Z" fill="#0E7BCB"/>
<path d="M46.7889 41.2844C44.9541 41.2844 43.3486 42.8899 43.3486 44.7248C43.3486 46.5597 44.9541 48.1652 46.7889 48.1652C48.6238 48.1652 50.2293 46.5597 50.2293 44.7248C49.9999 42.8899 48.6238 41.2844 46.7889 41.2844ZM46.7889 46.1009C46.1009 46.1009 45.4128 45.4129 45.4128 44.7248C45.4128 44.0367 46.1009 43.3486 46.7889 43.3486C47.477 43.3486 48.1651 44.0367 48.1651 44.7248C48.1651 45.4129 47.477 46.1009 46.7889 46.1009Z" fill="#0E7BCB"/>
<path d="M46.3302 30.9633C46.3302 28.6697 44.4954 26.6055 41.9724 26.6055C39.6788 26.6055 37.6146 28.4403 37.6146 30.9633C37.6146 33.2568 39.4495 35.3211 41.9724 35.3211C44.4954 35.0917 46.3302 33.2568 46.3302 30.9633ZM42.2018 33.2568C40.8256 33.2568 39.9082 32.1101 39.9082 30.9633C39.9082 29.5871 41.055 28.6697 42.2018 28.6697C43.5779 28.6697 44.4954 29.8165 44.4954 30.9633C44.4954 32.1101 43.3486 33.2568 42.2018 33.2568Z" fill="#0E7BCB"/>
<path d="M32.5688 14.679C32.7981 14.679 33.0275 14.679 33.2569 14.4496C33.7156 13.9909 33.7156 13.5322 33.2569 13.0735C32.7981 12.6148 32.3394 12.6148 31.8807 13.0735C31.422 13.5322 31.422 13.9909 31.8807 14.4496C31.8807 14.679 32.1101 14.679 32.5688 14.679Z" fill="#0E7BCB"/>
</g>
<defs>
<clipPath id="clip0">
<rect width="50" height="50" fill="white"/>
</clipPath>
</defs>
</svg>
