<svg width="67" height="82" viewBox="0 0 67 82" fill="none" xmlns="http://www.w3.org/2000/svg">
<path d="M63.6294 76.4555H58.3756V11.9644C58.3756 10.5053 57.2081 9.33808 55.7487 9.33808H35.901V2.62633C35.901 1.16726 34.7335 0 33.2741 0H15.1777C13.7183 0 12.5508 1.16726 12.5508 2.62633V9.33808H10.5076C9.04822 9.33808 7.88071 10.5053 7.88071 11.9644V76.4555H2.6269C1.16751 76.4555 0 77.6228 0 79.0818C0 80.5409 1.16751 81.7082 2.6269 81.7082H21.3071C21.8909 81.7082 22.7665 81.1245 22.7665 80.2491V65.0747H21.599C20.1396 65.0747 18.9721 63.9075 18.9721 62.4484C18.9721 60.9893 20.1396 59.8221 21.599 59.8221C22.4746 59.8221 45.533 59.8221 44.9492 59.8221C46.4086 59.8221 47.5761 60.9893 47.5761 62.4484C47.5761 63.9075 46.4086 65.0747 44.9492 65.0747H43.7817V80.2491C43.7817 80.8327 44.3655 81.7082 45.2411 81.7082H63.9213C65.3807 81.7082 66.5482 80.5409 66.5482 79.0818C66.2563 77.331 65.0888 76.4555 63.6294 76.4555ZM26.8528 54.5694H23.934C22.4746 54.5694 21.3071 53.4021 21.3071 51.9431C21.3071 50.484 22.4746 49.3167 23.934 49.3167H26.8528C28.3122 49.3167 29.4797 50.484 29.4797 51.9431C29.4797 53.4021 28.3122 54.5694 26.8528 54.5694ZM26.8528 44.6477H23.934C22.4746 44.6477 21.3071 43.4804 21.3071 42.0213C21.3071 40.5623 22.4746 39.395 23.934 39.395H26.8528C28.3122 39.395 29.4797 40.5623 29.4797 42.0213C29.4797 43.4804 28.3122 44.6477 26.8528 44.6477ZM26.8528 34.726H23.934C22.4746 34.726 21.3071 33.5587 21.3071 32.0996C21.3071 30.6406 22.4746 29.4733 23.934 29.4733H26.8528C28.3122 29.4733 29.4797 30.6406 29.4797 32.0996C29.4797 33.5587 28.3122 34.726 26.8528 34.726ZM26.8528 24.8043H23.934C22.4746 24.8043 21.3071 23.637 21.3071 22.1779C21.3071 20.7189 22.4746 19.5516 23.934 19.5516H26.8528C28.3122 19.5516 29.4797 20.7189 29.4797 22.1779C29.4797 23.637 28.3122 24.8043 26.8528 24.8043ZM42.3223 54.5694H39.4036C37.9442 54.5694 36.7767 53.4021 36.7767 51.9431C36.7767 50.484 37.9442 49.3167 39.4036 49.3167H42.3223C43.7817 49.3167 44.9492 50.484 44.9492 51.9431C44.9492 53.4021 43.7817 54.5694 42.3223 54.5694ZM42.3223 44.6477H39.4036C37.9442 44.6477 36.7767 43.4804 36.7767 42.0213C36.7767 40.5623 37.9442 39.395 39.4036 39.395H42.3223C43.7817 39.395 44.9492 40.5623 44.9492 42.0213C44.9492 43.4804 43.7817 44.6477 42.3223 44.6477ZM42.3223 34.726H39.4036C37.9442 34.726 36.7767 33.5587 36.7767 32.0996C36.7767 30.6406 37.9442 29.4733 39.4036 29.4733H42.3223C43.7817 29.4733 44.9492 30.6406 44.9492 32.0996C44.9492 33.5587 43.7817 34.726 42.3223 34.726ZM42.3223 24.8043H39.4036C37.9442 24.8043 36.7767 23.637 36.7767 22.1779C36.7767 20.7189 37.9442 19.5516 39.4036 19.5516H42.3223C43.7817 19.5516 44.9492 20.7189 44.9492 22.1779C44.9492 23.637 43.7817 24.8043 42.3223 24.8043ZM28.0203 80.2491V66.5338C28.0203 65.9502 28.6041 65.0747 29.4797 65.0747H37.3604C37.9442 65.0747 38.8198 65.6584 38.8198 66.5338V80.2491C38.8198 80.8327 38.236 81.7082 37.3604 81.7082H29.1878C28.6041 81.7082 28.0203 81.1245 28.0203 80.2491Z" fill="#0E7BCB"/>
</svg>
