<svg width="83" height="83" viewBox="0 0 83 83" fill="none" xmlns="http://www.w3.org/2000/svg">
<path d="M80.5584 79.2278H75.0127V43.6263H76.1802C77.3477 43.6263 78.5152 42.7509 79.099 41.5836C79.6827 40.4164 79.099 38.9573 78.2234 38.3737L76.4721 36.9146H80.5584C81.1421 36.9146 81.434 36.6228 81.7259 36.0391C82.0178 35.4555 81.7259 34.8719 81.434 34.5801L72.9696 24.6584H77.9315C78.5152 24.6584 78.8071 24.3666 79.099 23.7829C79.3909 23.1993 79.3909 22.6157 78.8071 22.3238L72.9696 15.0285H75.3046C75.8883 15.0285 76.1802 14.7367 76.4721 14.153C76.764 13.5694 76.764 12.9858 76.1802 12.694L66.5482 0.437722C65.9645 -0.145907 64.797 -0.145907 64.5051 0.437722L54.8731 12.694C54.5812 12.9858 54.5812 13.5694 54.5812 14.153C55.165 14.7367 55.4569 15.0285 56.0406 15.0285H58.3756L55.7487 18.2384L46.9924 10.6512C43.7817 7.44128 38.5279 7.44128 35.3173 10.6512L26.5609 18.2384L23.934 15.0285H26.269C26.8528 15.0285 27.1447 14.7367 27.4366 14.153C27.7284 13.5694 27.7284 12.9858 27.1447 12.694L17.5127 0.729537C16.9289 0.145907 15.7614 0.145907 15.4695 0.729537L5.83756 12.9858C5.54569 13.2776 5.54569 13.8612 5.54569 14.4448C5.83756 15.0285 6.12944 15.3203 6.7132 15.3203H9.04823L2.91878 22.6157C2.91878 22.9075 2.91878 23.4911 2.91878 23.7829C3.21066 24.3666 3.50254 24.6584 4.08629 24.6584H9.04823L0.583759 34.5801C0.29188 34.8719 0.291879 35.4555 0.291879 36.0391C0.583758 36.6228 0.875635 36.9146 1.45939 36.9146H5.54569L3.79441 38.3737C2.91878 39.2491 2.6269 40.4164 2.91878 41.5836C3.50254 42.7509 4.37817 43.6263 5.83756 43.6263H7.00508V74.5587C7.00508 76.6014 7.00508 78.0605 7.00508 79.2278H1.45939C0.583756 79.2278 0 79.8114 0 80.6868C0 81.5623 0.583756 82.1459 1.45939 82.1459H80.5584C81.434 82.1459 82.0178 81.5623 82.0178 80.6868C82.0178 79.8114 81.434 79.2278 80.5584 79.2278ZM65.6726 3.64769L72.3858 12.4021H58.9594L65.6726 3.64769ZM61.8782 15.0285H69.467L75.0127 21.7402H59.5432L57.5 19.9893L61.8782 15.0285ZM63.0457 31.3701C63.9213 31.3701 64.5051 31.9537 64.5051 32.8292C64.5051 33.7046 63.9213 34.2883 63.0457 34.2883H60.4188C59.5432 34.2883 58.9594 33.7046 58.9594 32.8292C58.9594 31.9537 59.5432 31.3701 60.4188 31.3701H63.0457ZM56.3325 22.6157L58.3756 24.3665C58.6675 24.6584 58.9594 24.6584 59.2513 24.6584H57.7919C56.9163 24.6584 56.3325 24.0747 56.3325 23.1993C56.0406 23.1993 56.3325 22.9075 56.3325 22.6157ZM48.4518 22.032H51.3706C52.2462 22.032 52.83 22.6157 52.83 23.4911C52.83 24.3665 52.2462 24.9502 51.3706 24.9502H48.4518C47.5761 24.9502 46.9924 24.3665 46.9924 23.4911C47.2843 22.6157 47.868 22.032 48.4518 22.032ZM47.868 32.8292C47.868 33.7046 47.2843 34.2883 46.4086 34.2883H43.7817C42.9061 34.2883 42.3223 33.7046 42.3223 32.8292C42.3223 31.9537 42.9061 31.3701 43.7817 31.3701H46.7005C47.2843 31.3701 47.868 31.9537 47.868 32.8292ZM39.6954 22.032H42.6142C43.4898 22.032 44.0736 22.6157 44.0736 23.4911C44.0736 24.3665 43.4898 24.9502 42.6142 24.9502H39.6954C38.8198 24.9502 38.236 24.3665 38.236 23.4911C38.236 22.6157 38.8198 22.032 39.6954 22.032ZM35.6091 31.3701H38.236C39.1117 31.3701 39.6954 31.9537 39.6954 32.8292C39.6954 33.7046 39.1117 34.2883 38.236 34.2883H35.6091C34.7335 34.2883 34.1498 33.7046 34.1498 32.8292C34.1498 31.9537 35.0254 31.3701 35.6091 31.3701ZM30.6472 22.032H33.566C34.4416 22.032 35.0254 22.6157 35.0254 23.4911C35.0254 24.3665 34.4416 24.9502 33.566 24.9502H30.6472C29.7716 24.9502 29.1878 24.3665 29.1878 23.4911C29.1878 22.6157 30.0635 22.032 30.6472 22.032ZM25.9772 23.1993C25.9772 24.0747 25.3934 24.6584 24.5178 24.6584H23.3503C23.3503 24.6584 23.3503 24.6584 23.0584 24.6584C23.3503 24.6584 23.6421 24.6584 23.934 24.3665L25.9772 22.6157C25.9772 22.9075 25.9772 22.9075 25.9772 23.1993ZM23.3503 32.8292C23.3503 33.7046 22.7665 34.2883 21.8909 34.2883H19.264C18.3883 34.2883 17.8046 33.7046 17.8046 32.8292C17.8046 31.9537 18.3883 31.3701 19.264 31.3701H21.8909C22.7665 31.3701 23.3503 31.9537 23.3503 32.8292ZM16.6371 3.64769L23.3503 12.4021H9.92386L16.6371 3.64769ZM7.29696 22.032L12.8426 15.3203H20.4315L24.5178 20.2811L23.3503 21.1566L22.4746 22.032H7.29696ZM8.75635 34.2883H4.67005L12.8426 24.6584H19.5558L11.0914 31.9537L8.75635 34.2883ZM15.1777 32.8292C15.1777 33.7046 14.5939 34.2883 13.7183 34.2883H12.8426L15.1777 32.2456C15.1777 32.5374 15.1777 32.5374 15.1777 32.8292ZM28.8959 66.9715C28.8959 67.847 28.3122 68.4306 27.4366 68.4306H13.7183C12.8426 68.4306 12.2589 67.847 12.2589 66.9715V53.2562C12.2589 52.3808 12.8426 51.7972 13.7183 51.7972H27.4366C28.3122 51.7972 28.8959 52.3808 28.8959 53.2562V66.9715ZM30.0635 34.2883H27.4366C26.5609 34.2883 25.9772 33.7046 25.9772 32.8292C25.9772 31.9537 26.5609 31.3701 27.4366 31.3701H30.0635C30.9391 31.3701 31.5228 31.9537 31.5228 32.8292C31.5228 33.7046 30.9391 34.2883 30.0635 34.2883ZM39.6954 72.516H38.236C37.3604 72.516 36.7767 71.9324 36.7767 71.0569C36.7767 70.1815 37.3604 69.5979 38.236 69.5979H39.6954C40.5711 69.5979 41.1548 70.1815 41.1548 71.0569C41.1548 71.9324 40.5711 72.516 39.6954 72.516ZM50.7868 79.2278H48.1599V58.8007H34.4416V79.2278H31.8147V57.3416C31.8147 56.4662 32.3985 55.8826 33.2741 55.8826H49.6193C50.4949 55.8826 51.0787 56.4662 51.0787 57.3416V79.2278H50.7868ZM50.7868 32.8292C50.7868 31.9537 51.3706 31.3701 52.2462 31.3701H54.8731C55.7487 31.3701 56.3325 31.9537 56.3325 32.8292C56.3325 33.7046 55.7487 34.2883 54.8731 34.2883H52.2462C51.3706 34.2883 50.7868 33.7046 50.7868 32.8292ZM69.7589 66.9715C69.7589 67.847 69.1751 68.4306 68.2995 68.4306H54.5812C53.7056 68.4306 53.1218 67.847 53.1218 66.9715V53.2562C53.1218 52.3808 53.7056 51.7972 54.5812 51.7972H68.2995C69.1751 51.7972 69.7589 52.3808 69.7589 53.2562V66.9715ZM67.132 32.8292C67.132 32.5374 67.132 32.5374 67.132 32.2456L69.467 34.2883H68.5914C67.7157 34.2883 67.132 33.7046 67.132 32.8292ZM73.5533 34.2883L62.7538 24.6584H69.467L77.6396 34.2883H73.5533Z" fill="#0E7BCB"/>
</svg>
