<svg width="36" height="27" viewBox="0 0 36 27" fill="none" xmlns="http://www.w3.org/2000/svg">
<path d="M0.206897 7.74419C2.48276 9.62791 4.75862 11.7209 6.62069 13.814C4.96552 13.186 2.89655 12.7674 1.03448 12.7674H0.62069C0.413793 12.7674 0.206897 12.9767 0 13.3953C0 13.6047 0 14.0233 0.206897 14.2326C0.62069 14.6512 4.96552 16.9535 6.41379 21.5581C4.34483 21.9767 2.89655 23.6512 2.48276 25.7442H0.62069C0.206897 25.7442 0 26.1628 0 26.3721C0 26.7907 0.413793 27 0.62069 27H8.89655C9.31035 27 9.51724 26.5814 9.51724 26.3721C9.51724 25.9535 9.10345 25.7442 8.89655 25.7442H3.93103C4.34483 24.0698 5.58621 23.0233 7.24138 22.814C8.27586 22.814 9.10345 23.0233 9.72414 23.8605C10.1379 24.2791 10.5517 24.0698 10.7586 23.6512C11.7931 21.7674 13.6552 20.7209 15.7241 20.7209C17.5862 20.7209 19.0345 21.5581 20.069 22.814C19.4483 23.4419 19.2414 24.4884 19.2414 25.3256C19.2414 25.5349 19.2414 25.5349 19.2414 25.7442H15.3103C14.8966 25.7442 14.6897 26.1628 14.6897 26.3721C14.6897 26.7907 15.1034 27 15.3103 27H35.3793C35.7931 27 36 26.5814 36 26.3721C36 25.9535 35.5862 25.7442 35.3793 25.7442H33.5172C33.3103 23.6512 31.6552 21.9767 29.5862 21.5581C30.8276 16.7442 35.3793 14.4419 35.7931 14.2326C36 14.0233 36.2069 13.814 36 13.3953C36 13.186 35.5862 12.9767 35.3793 12.9767H34.9655C33.3103 12.9767 31.4483 13.186 30 13.814C32.4828 10.0465 35.3793 8.16279 35.7931 7.95349C36 7.74419 36.2069 7.32558 36 7.11628C36 6.48837 35.5862 6.27907 35.1724 6.48837C31.0345 7.32558 27.1035 9.4186 24.2069 12.3488C24.6207 9.2093 25.4483 6.06977 26.8966 3.34884C27.1035 3.13953 26.8966 2.72093 26.6897 2.51163C26.6897 2.09302 26.4828 2.09302 26.2759 2.30233C22.3448 4.18605 19.4483 7.53488 18.2069 11.7209C15.931 6.90698 12.4138 2.93023 7.86207 0C7.65517 0 7.24138 0 7.03448 0.209302C6.82759 0.418605 6.62069 0.837209 6.82759 1.04651C9.31035 5.23256 10.7586 7.11628 12 10.8837C8.89655 7.95349 4.75862 6.48837 0.62069 6.48837C0.413793 6.48837 0.206897 6.69767 0 6.90698C0 7.11628 0 7.53488 0.206897 7.74419ZM10.1379 22.186C9.51724 21.7674 8.68966 21.3488 7.86207 21.3488C7.24138 18.8372 5.58621 16.3256 3.10345 14.4419C5.17241 14.6512 7.03448 15.2791 8.48276 16.1163C9.51724 17.7907 10.5517 19.4651 11.1724 21.1395C10.7586 21.3488 10.5517 21.7674 10.1379 22.186ZM32.069 25.7442H20.8966C20.8966 25.5349 20.8966 25.5349 20.8966 25.3256C20.8966 24.6977 21.1035 23.8605 21.7241 23.4419C22.1379 23.0233 22.7586 22.814 23.3793 22.814C24.2069 22.814 24.8276 23.2326 25.2414 23.6512C25.4483 23.8605 25.8621 24.0698 26.2759 23.6512C26.8966 23.0233 27.931 22.6047 28.7586 22.814C30.4138 22.814 31.8621 24.0698 32.069 25.7442ZM28.1379 21.3488C27.5172 21.3488 27.1035 21.5581 26.4828 21.7674C26.8966 19.6744 27.5172 17.5814 28.5517 15.4884C29.7931 14.8605 31.2414 14.4419 32.6897 14.2326C30.6207 16.3256 28.9655 18.8372 28.1379 21.3488ZM32.2759 8.7907C28.5517 12.1395 26.069 16.7442 25.2414 21.7674C24.6207 21.5581 24 21.3488 23.3793 21.3488C22.7586 21.3488 22.1379 21.5581 21.5172 21.7674C21.3103 21.5581 21.1035 21.1395 20.6897 20.9302C21.1035 20.093 21.7241 17.5814 24 14.6512C26.069 12.1395 28.9655 10.0465 32.2759 8.7907ZM25.0345 4.60465C23.7931 7.53488 23.1724 10.6744 22.9655 14.0233C21.931 15.4884 20.8966 16.9535 20.2759 18.4186C19.8621 16.9535 19.4483 15.4884 19.0345 14.0233C19.6552 10.2558 21.931 6.90698 25.0345 4.60465ZM9.72414 3.13953C13.2414 6.06977 15.931 9.83721 17.5862 14.2326C18.2069 15.907 18.6207 17.7907 18.8276 19.6744V20.093C18 19.4651 16.9655 19.2558 15.931 19.2558C15.5172 19.2558 14.8966 19.2558 14.4828 19.4651V18C14.4828 9.83721 10.5517 4.60465 9.72414 3.13953ZM12.8276 14.0233C13.0345 15.2791 13.2414 16.7442 13.2414 18V19.8837C12.8276 19.8837 12.6207 20.093 12.4138 20.3023C10.3448 15.6977 7.03448 11.5116 2.89655 8.16279C6.82759 8.5814 10.5517 10.8837 12.8276 14.0233Z" fill="#0E7BCB"/>
</svg>
