<svg width="235" height="79" viewBox="0 0 235 79" fill="none" xmlns="http://www.w3.org/2000/svg">
<g clip-path="url(#clip0)">
<path d="M62.5943 8.1786C62.0516 9.25709 60.5139 10.1558 59.6998 10.785C58.5239 11.6837 57.348 12.4027 56.0816 13.0318C53.6393 14.2002 51.0162 14.8293 48.4834 15.0091C38.5335 15.5483 29.2167 9.34697 19.4476 7.18997C17.2767 6.7406 15.0154 6.47097 12.8445 7.36972C9.8595 8.62797 7.23633 11.7736 4.79407 14.9192C7.14588 13.661 9.31678 11.5938 11.759 10.6951C14.1108 9.79634 16.734 10.4255 19.1763 11.2343C24.5131 12.942 29.4881 16.4471 34.7344 18.2446C39.7998 19.9522 45.0462 20.0421 50.1116 18.4243C54.9057 17.0762 59.5189 14.0205 62.5943 8.1786Z" fill="white"/>
<path d="M49.2071 28.1309C49.1166 28.3106 49.0262 28.9397 48.7548 29.7486L49.2071 28.1309Z" fill="black"/>
<path d="M30.5735 78.5507L7.05542 28.9397L14.9249 29.7486L4.79406 26.6929C3.79907 26.3334 2.89452 27.322 3.3468 28.2207L30.5735 78.5507Z" fill="white"/>
<path d="M69.7402 6.65074L65.3984 6.11149C64.9461 6.02162 64.6748 5.66212 64.6748 5.12287L64.4034 0L64.0416 5.21274C64.0416 5.75199 63.6798 6.11149 63.3179 6.20136L59.157 6.65074L63.2275 6.74061C63.6798 6.74061 64.0416 7.18999 64.0416 7.72924L64.4034 13.5711L64.5843 7.63936C64.5843 7.10011 64.9461 6.65074 65.3984 6.65074H69.7402Z" fill="white"/>
<path d="M49.1166 64.62L67.9311 25.2548C68.4738 24.1763 67.4788 22.9181 66.2124 23.2776L53.5488 26.5131C52.9157 26.6928 52.4634 27.1422 52.2825 27.6815C50.0211 34.1525 36.2721 72.7088 36.2721 72.7088C38.8953 64.4403 40.7948 56.5313 43.5989 48.8919C44.413 45.9261 48.1216 34.0626 49.3879 30.917C50.1116 29.1195 48.8452 27.2321 46.8552 27.1422C38.3525 27.0523 28.3121 27.0523 19.8999 26.9625C18.5431 26.9625 17.5481 28.2207 17.9099 29.479C22.1612 44.2184 27.5885 59.587 31.6589 74.2366C26.3221 58.7782 20.9853 43.3197 15.739 27.8612C15.5581 27.2321 15.2867 26.603 14.8344 26.2435C14.4726 25.9738 5.87948 23.9067 1.98995 23.008C0.633133 22.7383 -0.452317 24.0865 0.180863 25.2548C6.33175 38.1069 13.1158 52.3072 19.1762 64.9795C17.4576 64.9795 16.2817 65.0694 14.6535 65.0694C14.0204 65.0694 12.754 65.2492 12.5731 65.9682C15.1963 65.9682 17.8194 65.9682 20.4426 65.8783C14.1108 52.6667 7.86947 39.3652 1.53768 26.1536C1.35677 25.884 1.62813 25.5245 1.98995 25.5245C5.69857 25.884 9.40719 26.3333 13.2063 26.6928C13.6585 26.7827 14.2013 26.7827 14.5631 27.1422C14.9249 27.5017 15.1058 28.041 15.3772 28.5802C21.0758 44.9374 26.7744 61.2048 32.473 77.562C32.6539 78.1911 33.1062 78.7304 33.468 78.9101C29.2167 63.2719 25.0558 47.6337 20.8044 32.0853C20.3521 30.2878 21.709 28.5802 23.518 28.6701L47.398 29.1195C39.2571 31.1866 30.8448 31.7258 22.5231 30.6473C25.9603 31.0967 29.3976 31.4562 32.8348 31.9056C34.6439 32.0853 36.3625 32.2651 38.1716 32.4448C39.7093 32.6246 41.7898 32.5347 43.1466 33.3436C43.3275 33.4335 43.5084 33.7031 43.5084 33.9727C43.5989 34.7816 35.9103 71.2708 35.5485 76.2139C35.5485 76.4835 35.5485 76.9329 35.458 77.2025C35.458 77.2025 50.4734 35.9499 52.9157 29.0296C53.0966 28.4005 53.6393 27.9511 54.2725 27.8612L66.0315 25.5245C66.3933 25.4346 66.7551 25.884 66.5742 26.2435L47.7598 65.7884C47.4884 65.7884 225.231 67.6758 225.231 67.6758L235 65.1593L49.1166 64.62Z" fill="white"/>
<path d="M25.4176 38.4665L28.674 34.512C28.7644 34.4221 28.9453 34.3322 29.0358 34.3322L37.9003 34.4221C38.0812 34.4221 38.1716 34.512 38.2621 34.6018L40.7044 38.107C40.7948 38.1968 40.7948 38.3766 40.7948 38.4665L34.463 68.8442C34.3726 69.2935 33.6489 69.3834 33.5585 68.8442L25.3271 38.826C25.3271 38.7361 25.3271 38.5563 25.4176 38.4665Z" fill="#2EC0FF"/>
<path d="M70.102 31.7259C71.5493 31.8157 72.9965 31.8157 74.4438 31.8157C74.9865 31.8157 75.8911 31.7259 77.067 31.7259C78.2429 31.636 79.057 31.636 79.5092 31.636C82.0419 31.636 83.9415 32.0854 85.2078 33.074C86.4742 34.0626 87.1074 35.5006 87.1074 37.2981C87.1074 40.264 85.5697 42.3311 82.5847 43.3197C84.3938 43.5893 85.7506 44.3083 86.6551 45.3868C87.5596 46.4653 88.1024 47.8135 88.1024 49.5211C88.1024 51.9477 87.2883 53.8351 85.5697 55.0933C83.9415 56.4414 81.5897 57.0706 78.6047 57.0706C78.062 57.0706 77.4288 57.0706 76.7051 56.9807C75.9815 56.9807 75.2579 56.8908 74.4438 56.8908C73.087 56.8908 71.6397 56.8908 70.1924 56.9807L70.102 56.1718L72.1824 55.5427C72.4538 55.4528 72.6347 55.2731 72.6347 55.0034C72.6347 54.5541 72.6347 54.0148 72.6347 53.3857C72.6347 52.7566 72.6347 52.1275 72.6347 51.4085V36.7589C72.6347 36.1297 72.6347 35.5905 72.6347 35.0512C72.6347 34.512 72.6347 34.1525 72.6347 33.7031C72.6347 33.4335 72.4538 33.1639 72.1824 33.074L70.0115 32.355L70.102 31.7259ZM76.072 42.9602C76.7956 42.9602 77.5192 42.9602 78.2429 42.9602C79.9615 42.9602 81.2278 42.5108 82.0419 41.702C82.9465 40.8032 83.3083 39.545 83.3083 37.9272C83.3083 36.2196 82.856 34.9614 81.9515 34.2424C81.0469 33.5234 79.7806 33.074 78.1524 33.074C77.881 33.074 77.5192 33.074 77.1574 33.074C76.7956 33.074 76.4338 33.1639 75.9815 33.1639V42.9602H76.072ZM76.072 44.3982V55.3629C76.4338 55.4528 76.7956 55.5427 77.2479 55.6326C77.7001 55.6326 78.1524 55.7224 78.5142 55.7224C80.4138 55.7224 81.861 55.1832 82.856 54.1946C83.851 53.2059 84.3033 51.768 84.3033 49.8806C84.3033 47.9932 83.7606 46.6451 82.7656 45.6565C81.7706 44.6678 80.1424 44.3083 77.9715 44.3083C77.3383 44.3982 76.7051 44.3982 76.072 44.3982Z" fill="white"/>
<path d="M108.002 48.3527C108.002 51.1388 107.188 53.2958 105.65 55.0034C104.113 56.7111 102.032 57.5199 99.6805 57.5199C97.3287 57.5199 95.4291 56.7111 93.8914 55.0933C92.3537 53.4756 91.7205 51.4084 91.7205 48.8021C91.7205 46.1058 92.4442 43.9488 93.9819 42.3311C95.5196 40.6234 97.5096 39.8146 100.042 39.8146C102.394 39.8146 104.384 40.6235 105.831 42.1513C107.279 43.6792 108.002 45.7463 108.002 48.3527ZM95.1578 48.5324C95.1578 50.7793 95.5196 52.6667 96.3337 54.0148C97.1478 55.4528 98.3237 56.1718 99.8614 56.1718C101.309 56.1718 102.485 55.5427 103.208 54.2844C104.022 53.0262 104.384 51.2287 104.384 48.7122C104.384 46.3754 104.022 44.5779 103.208 43.2298C102.394 41.8817 101.218 41.2526 99.6805 41.2526C98.2332 41.2526 97.0573 41.8817 96.3337 43.0501C95.61 44.2184 95.1578 46.1058 95.1578 48.5324Z" fill="white"/>
<path d="M120.033 41.7019C119.4 41.5222 118.676 41.4323 117.862 41.4323C116.776 41.4323 115.962 41.6121 115.239 42.0614C114.605 42.5108 114.244 43.1399 114.244 43.8589C114.244 44.5779 114.425 45.2071 114.877 45.5666C115.329 46.0159 116.143 46.3754 117.229 46.8248L118.676 47.3641C120.214 47.9033 121.39 48.6223 122.113 49.3413C122.837 50.0603 123.199 51.0489 123.199 52.2173C123.199 53.9249 122.565 55.1832 121.299 56.1718C120.033 57.1604 118.495 57.6098 116.595 57.6098C114.877 57.6098 113.068 57.2503 111.259 56.5313C111.62 55.0034 111.982 53.3857 112.163 51.9477L112.796 51.8578L114.063 55.7224C114.696 55.992 115.51 56.0819 116.595 56.0819C117.681 56.0819 118.495 55.8123 119.128 55.3629C119.761 54.9135 120.123 54.2844 120.123 53.3857C120.123 52.5768 119.942 52.0376 119.49 51.5882C119.038 51.1388 118.405 50.7793 117.41 50.4198L115.6 49.7907C114.063 49.2514 112.977 48.6223 112.435 47.8134C111.801 47.0046 111.53 46.1058 111.53 44.9374C111.53 43.3197 112.073 42.1513 113.249 41.1627C114.425 40.2639 115.872 39.8146 117.771 39.8146C119.49 39.8146 121.118 40.0842 122.475 40.6235C122.113 41.9716 121.842 43.4096 121.57 45.0273L120.937 45.1172L120.033 41.7019Z" fill="white"/>
<path d="M135.139 41.7019C134.505 41.5222 133.782 41.4323 132.968 41.4323C131.882 41.4323 131.068 41.6121 130.344 42.0614C129.711 42.5108 129.349 43.1399 129.349 43.8589C129.349 44.5779 129.53 45.2071 129.983 45.5666C130.435 46.0159 131.249 46.3754 132.334 46.8248L133.782 47.3641C135.319 47.9033 136.495 48.6223 137.219 49.3413C137.943 50.0603 138.304 51.0489 138.304 52.2173C138.304 53.9249 137.671 55.1832 136.405 56.1718C135.139 57.1604 133.601 57.6098 131.701 57.6098C129.983 57.6098 128.174 57.2503 126.365 56.5313C126.726 55.0034 127.088 53.3857 127.269 51.9477L127.902 51.8578L129.169 55.7224C129.802 55.992 130.616 56.0819 131.701 56.0819C132.787 56.0819 133.601 55.8123 134.234 55.3629C134.867 54.9135 135.229 54.2844 135.229 53.3857C135.229 52.5768 135.048 52.0376 134.596 51.5882C134.144 51.1388 133.51 50.7793 132.515 50.4198L130.706 49.7907C129.169 49.2514 128.083 48.6223 127.54 47.8134C126.907 47.0046 126.636 46.1058 126.636 44.9374C126.636 43.3197 127.179 42.1513 128.354 41.1627C129.53 40.2639 130.978 39.8146 132.877 39.8146C134.596 39.8146 136.224 40.0842 137.581 40.6235C137.219 41.9716 136.948 43.4096 136.676 45.0273L136.043 45.1172L135.139 41.7019Z" fill="white"/>
<path d="M160.737 38.0171L160.013 38.1069L158.747 33.3436C157.3 32.9841 156.033 32.8043 154.858 32.8043C152.053 32.8043 149.883 33.793 148.254 35.8601C146.626 37.9272 145.812 40.6234 145.812 43.8589C145.812 47.3641 146.717 50.2401 148.526 52.3072C150.335 54.3743 152.868 55.4528 156.124 55.4528C157.933 55.4528 159.833 55.0933 161.913 54.3743L162.094 55.1832C159.833 56.8009 157.3 57.6098 154.405 57.6098C150.697 57.6098 147.712 56.4414 145.45 54.0148C143.189 51.678 142.013 48.5324 142.013 44.5779C142.013 40.4437 143.279 37.1183 145.812 34.7816C148.345 32.355 151.601 31.1866 155.672 31.1866C157.571 31.1866 159.561 31.4562 161.642 31.9056L161.732 32.0853L160.737 38.0171Z" fill="white"/>
<path d="M165.26 31.636L165.169 31.0068C167.159 30.5575 169.059 30.198 170.778 29.7486L170.958 29.9283C170.868 31.9056 170.868 34.6018 170.868 38.107V49.8806C170.868 52.0376 170.868 53.7452 170.868 55.0933C170.868 55.4528 171.049 55.6326 171.32 55.7224L173.22 56.3516L173.31 57.0706C171.773 57.0706 170.416 56.9807 169.33 56.9807C168.245 56.9807 166.888 56.9807 165.35 57.0706L165.26 56.3516L167.159 55.7224C167.431 55.6326 167.612 55.4528 167.612 55.1832C167.612 53.8351 167.612 52.3072 167.612 50.5996V43.14C167.612 38.6462 167.612 35.0512 167.521 32.355L165.26 31.636Z" fill="white"/>
<path d="M190.677 55.7225C189.682 56.3516 188.687 56.801 187.692 57.0706C186.697 57.3402 185.702 57.52 184.798 57.52C182.265 57.52 180.275 56.801 178.647 55.2731C177.109 53.7452 176.295 51.6781 176.295 48.9818C176.295 46.2856 177.019 44.1286 178.466 42.421C179.913 40.7134 181.813 39.9045 184.255 39.9045C186.245 39.9045 187.873 40.5336 188.959 41.7919C190.044 43.0501 190.677 44.8476 190.677 47.0945C190.677 47.454 190.677 47.8135 190.587 48.0831H179.732C179.732 50.6895 180.275 52.5768 181.451 53.6553C182.627 54.7338 184.436 55.363 186.878 55.363C187.964 55.363 189.14 55.2731 190.406 55.0035L190.677 55.7225ZM187.24 46.5552V46.016C187.24 44.3083 186.969 43.0501 186.517 42.3311C185.974 41.6121 185.25 41.2526 184.255 41.2526C182.898 41.2526 181.903 41.7918 181.18 42.7805C180.456 43.859 180.094 45.1172 180.004 46.5552H187.24Z" fill="white"/>
<path d="M195.019 41.3424C197.281 40.3538 199.271 39.8146 200.989 39.8146C202.708 39.8146 204.155 40.264 205.15 41.2526C206.145 42.2412 206.688 43.5893 206.688 45.4767L206.597 53.0262C206.597 53.6553 206.597 54.1047 206.597 54.5541C206.597 55.0034 206.778 55.1832 206.869 55.4528C206.959 55.7224 207.321 55.8123 207.592 55.9022C207.954 55.9921 208.406 55.9921 208.949 56.0819L209.04 56.8009C208.587 56.9807 207.954 57.2503 207.231 57.43C206.507 57.6098 206.055 57.6997 205.783 57.6997C204.698 57.6997 203.884 57.0705 203.431 55.9022C201.803 57.1604 200.266 57.6997 198.818 57.6997C197.19 57.6997 195.924 57.2503 194.929 56.4414C193.934 55.6325 193.482 54.4642 193.482 52.9363C193.482 51.0489 194.296 49.7008 195.833 48.8021C197.371 47.9033 199.904 47.4539 203.251 47.4539V46.0159C203.251 44.6678 202.979 43.6792 202.256 43.0501C201.622 42.4209 200.537 42.0614 199.18 42.0614C198.095 42.0614 196.828 42.2412 195.291 42.6906L195.019 41.3424ZM203.341 48.8021C200.899 48.8021 199.271 49.0717 198.366 49.6109C197.462 50.1502 197.009 51.0489 197.009 52.2173C197.009 53.3857 197.281 54.1946 197.914 54.6439C198.456 55.0933 199.271 55.3629 200.266 55.3629C201.441 55.3629 202.346 55.1832 203.251 54.7338L203.341 48.8021Z" fill="white"/>
<path d="M211.482 41.0729C213.381 40.7134 215.191 40.264 216.909 39.8146L217.09 39.9045V41.9716C219.08 40.4437 220.98 39.7247 222.698 39.7247C224.326 39.7247 225.593 40.1741 226.497 41.1627C227.402 42.1514 227.854 43.4995 227.854 45.2071V51.5882C227.854 53.1161 227.854 54.1946 227.854 54.9136C227.854 55.2731 228.035 55.4528 228.306 55.5427L230.206 56.1718V56.8908C228.668 56.8908 227.402 56.801 226.226 56.801C225.141 56.801 223.874 56.801 222.427 56.8908L222.336 56.1718L224.055 55.6326C224.326 55.5427 224.417 55.363 224.507 55.0933C224.507 54.9136 224.507 54.5541 224.507 53.925V46.016C224.507 44.4881 224.146 43.4995 223.512 42.7805C222.879 42.1514 221.884 41.7919 220.527 41.7919C219.351 41.7919 218.176 42.1514 216.909 42.8704V50.7793C216.909 52.3072 216.909 53.6553 216.909 54.9136C216.909 55.2731 217.09 55.4528 217.271 55.5427L219.08 56.082V56.801C217.633 56.801 216.366 56.7111 215.281 56.7111C214.196 56.7111 212.839 56.7111 211.301 56.801L211.211 56.082L213.201 55.4528C213.472 55.363 213.562 55.1832 213.562 54.9136C213.562 54.1047 213.562 53.3857 213.562 52.6667V46.735C213.562 45.1172 213.562 43.6792 213.472 42.3311L211.211 41.702L211.482 41.0729Z" fill="white"/>
<path d="M39.3475 78.5506L61.0565 29.479L54.3629 29.9283L63.0465 27.4118C63.8606 27.0523 64.5843 28.1308 64.132 29.0296L39.3475 78.5506Z" fill="white"/>
<path d="M49.9307 40.5336L51.8302 38.0171C52.1016 37.6576 55.2675 33.7031 55.2675 33.7031C55.4484 33.7929 54.8152 39.0057 54.8152 39.4551L54.2725 42.0614C54.182 42.4209 54.0916 42.8703 53.9107 43.2298L42.6944 65.9681C41.9707 67.496 41.2471 67.2264 41.7898 65.6985L49.2975 41.8817C49.388 41.4323 49.6593 40.8931 49.9307 40.5336Z" fill="#2EC0FF"/>
<path d="M17.6385 39.4551L15.8295 36.8487C15.6486 36.4892 12.5731 32.4448 12.5731 32.4448C12.4827 32.5347 13.2063 37.6576 13.2967 38.1069L13.8395 40.7133C13.9299 41.0728 14.0204 41.5222 14.2917 41.8817L25.2367 64.7099C25.9603 66.2378 26.5935 66.058 26.0508 64.4403L18.2717 40.7133C18.0908 40.3538 17.8195 39.8146 17.6385 39.4551Z" fill="#2EC0FF"/>
</g>
<defs>
<clipPath id="clip0">
<rect width="235" height="79" fill="white"/>
</clipPath>
</defs>
</svg>
