<svg width="222" height="82" viewBox="0 0 222 82" fill="none" xmlns="http://www.w3.org/2000/svg">
<path d="M5.07812 28.7379H5.5013L14.2188 29.6649" fill="black"/>
<path opacity="0.92" d="M14.7266 36.2384L17.5196 37.5025L23.9519 57.1387L14.2188 39.778L14.7266 36.2384Z" fill="#2EC0FF"/>
<path d="M73.2947 9.86023C72.6176 10.8715 70.671 11.7143 69.6554 12.3042C68.2166 13.147 66.6931 13.8212 65.085 14.4111C61.9535 15.5067 58.6527 16.0966 55.4365 16.2652C42.8258 16.7708 30.9767 10.8715 18.6199 8.9332C15.8269 8.51183 12.9493 8.259 10.2409 9.10176C6.43233 10.2816 3.13153 13.3155 0 16.2652C2.96226 15.0853 5.75524 13.147 8.80214 12.3042C11.849 11.4615 15.1498 12.0514 18.1967 12.8099C24.883 14.4111 31.2307 17.6979 38.0015 19.3834C44.4339 20.9846 51.1201 21.0689 57.5524 19.5519C63.4769 18.2035 69.3168 15.3381 73.2947 9.86023Z" fill="white"/>
<path d="M53.3206 29.075C53.2359 29.3278 53.0667 29.8335 52.8974 30.6763L53.3206 29.075Z" fill="white"/>
<path d="M32.5002 82L8.46355 29.8335L16.8425 31.6033L2.96222 26.4625L32.5002 82Z" fill="white"/>
<path d="M80.7427 6.06783L74.6489 6.23638L74.141 0L73.8025 6.32066L68.1319 6.82631L73.8025 6.91059L74.7335 14.5796V6.91059L80.7427 6.06783Z" fill="white"/>
<path d="M87.6829 52.5879C87.6829 53.3463 87.5982 54.1048 87.429 54.779C87.2597 55.4532 87.0058 56.0431 86.7519 56.5488C86.498 57.0545 86.0748 57.5601 85.6516 57.9815C85.2284 58.4029 84.8052 58.74 84.2128 58.9928C83.705 59.2456 83.1125 59.4984 82.5201 59.5827C81.9276 59.7513 81.2505 59.7513 80.4888 59.7513H75.1567C74.9028 59.7513 74.6489 59.667 74.4797 59.4142C74.3104 59.1613 74.1411 58.8242 74.1411 58.3186V35.9856C74.1411 35.4799 74.2258 35.1428 74.4797 34.89C74.7336 34.7215 74.9028 34.5529 75.1567 34.5529H79.8117C80.9966 34.5529 82.0123 34.7215 82.774 34.9743C83.5357 35.2271 84.2128 35.6485 84.7206 36.2384C85.2284 36.7441 85.6516 37.4183 85.9055 38.261C86.1594 39.1038 86.3287 39.9465 86.3287 40.9578C86.3287 41.5478 86.244 42.1377 86.1594 42.6434C86.0748 43.149 85.9055 43.6547 85.6516 44.1603C85.3977 44.5817 85.1438 45.0031 84.8052 45.4244C84.4667 45.7615 84.0435 46.0987 83.6203 46.3515C84.2128 46.52 84.7206 46.6886 85.1438 47.0257C85.6516 47.3628 86.0748 47.7842 86.4133 48.3741C86.7519 48.8797 87.0904 49.5539 87.2597 50.2281C87.4289 50.9023 87.6829 51.7451 87.6829 52.5879ZM83.6203 41.3792C83.6203 40.7893 83.5357 40.1994 83.4511 39.6937C83.2818 39.1881 83.1125 38.7667 82.774 38.4296C82.5201 38.0925 82.0969 37.8397 81.5891 37.6711C81.0813 37.5026 80.4888 37.4183 79.7271 37.4183H76.9341V45.5087H79.981C80.6581 45.5087 81.2505 45.4244 81.6737 45.1716C82.0969 44.9188 82.4354 44.666 82.774 44.2446C83.0279 43.8232 83.2818 43.4018 83.3664 42.8962C83.4511 42.3905 83.6203 41.8849 83.6203 41.3792ZM84.8052 52.8407C84.8052 52.0822 84.7206 51.408 84.5513 50.8181C84.3821 50.2281 84.0435 49.8068 83.705 49.3854C83.3664 48.964 82.8586 48.7112 82.2662 48.4584C81.6737 48.2898 80.9966 48.1213 80.1503 48.1213H76.9341V56.9702H80.8273C81.4198 56.9702 82.0123 56.8859 82.4354 56.7174C82.8586 56.5488 83.2818 56.296 83.6203 55.8746C83.9589 55.4532 84.2128 55.0318 84.4667 54.5262C84.7206 54.1048 84.8052 53.5149 84.8052 52.8407Z" fill="white"/>
<path d="M112.058 46.9414C112.058 48.964 111.889 50.818 111.466 52.4193C111.042 54.0205 110.535 55.4532 109.688 56.633C108.926 57.8129 107.911 58.6557 106.811 59.2456C105.71 59.8355 104.271 60.1726 102.748 60.1726C101.225 60.1726 99.8704 59.9198 98.7701 59.3299C97.6699 58.7399 96.7389 57.9815 95.9772 56.8859C95.2154 55.7903 94.7076 54.4419 94.3691 52.8407C94.0305 51.2394 93.8613 49.3854 93.8613 47.3627C93.8613 45.3401 94.0305 43.5703 94.4537 41.9691C94.8769 40.3679 95.3847 38.9352 96.2311 37.8396C97.0774 36.744 98.0084 35.817 99.1087 35.2271C100.294 34.6371 101.648 34.3 103.171 34.3C104.695 34.3 105.964 34.5529 107.064 35.1428C108.165 35.7327 109.096 36.4912 109.857 37.5868C110.619 38.6824 111.127 39.9465 111.55 41.5477C111.889 43.0647 112.058 44.9188 112.058 46.9414ZM109.18 47.1942C109.18 45.7615 109.096 44.4131 108.842 43.2332C108.673 41.9691 108.334 40.9578 107.826 40.0308C107.318 39.1037 106.726 38.4295 105.88 37.9239C105.118 37.4182 104.102 37.1654 102.917 37.1654C101.732 37.1654 100.717 37.4182 99.955 38.0082C99.1933 38.5138 98.5162 39.2723 98.0084 40.1993C97.5006 41.1264 97.1621 42.1377 96.9082 43.4018C96.6542 44.5817 96.5696 45.9301 96.5696 47.1942C96.5696 48.7112 96.6542 50.0596 96.9082 51.2394C97.0774 52.5035 97.416 53.5991 97.9238 54.4419C98.4316 55.3689 99.0241 56.0431 99.7858 56.5488C100.547 57.0544 101.563 57.3072 102.748 57.3072C103.933 57.3072 104.949 57.0544 105.71 56.4645C106.557 55.9588 107.149 55.2004 107.657 54.2733C108.165 53.3463 108.503 52.2507 108.673 51.0709C108.842 49.891 109.18 48.5426 109.18 47.1942Z" fill="white"/>
<path d="M130.509 52.7564C130.509 53.9362 130.339 54.9475 130.001 55.8746C129.662 56.8016 129.154 57.5601 128.562 58.2343C127.97 58.9085 127.208 59.3299 126.361 59.667C125.515 60.0041 124.584 60.1726 123.653 60.1726C122.976 60.1726 122.299 60.0883 121.791 59.9198C121.199 59.7512 120.691 59.5827 120.268 59.4141C119.844 59.2456 119.421 58.9928 119.083 58.7399C118.744 58.4871 118.575 58.3186 118.406 58.15C118.321 57.9815 118.236 57.8129 118.152 57.5601C118.067 57.3073 118.067 56.9701 118.067 56.633C118.067 56.3802 118.067 56.1274 118.067 55.9588C118.067 55.7903 118.152 55.6217 118.152 55.5375C118.152 55.4532 118.236 55.3689 118.321 55.2846C118.406 55.2004 118.49 55.2004 118.575 55.2004C118.744 55.2004 118.913 55.2846 119.167 55.5375C119.421 55.7903 119.76 55.9588 120.183 56.2959C120.606 56.5488 121.114 56.8016 121.706 57.0544C122.299 57.3072 122.976 57.3915 123.738 57.3915C124.33 57.3915 124.838 57.3073 125.346 57.1387C125.854 56.9701 126.277 56.633 126.615 56.2959C126.954 55.9588 127.208 55.5375 127.462 54.9475C127.716 54.3576 127.716 53.852 127.716 53.1777C127.716 52.5035 127.546 51.8293 127.292 51.3237C127.039 50.818 126.7 50.3967 126.277 49.9753C125.854 49.5539 125.346 49.2168 124.838 48.964C124.246 48.6269 123.738 48.2898 123.145 47.9527C122.553 47.6156 122.045 47.2785 121.453 46.8571C120.945 46.4357 120.437 46.0143 120.014 45.4244C119.591 44.8345 119.252 44.2446 118.998 43.4861C118.744 42.7276 118.575 41.8848 118.575 40.8735C118.575 39.8622 118.744 38.8509 118.998 38.0924C119.337 37.2497 119.76 36.5755 120.268 35.9856C120.775 35.3956 121.453 34.9743 122.214 34.7214C122.976 34.4686 123.822 34.3 124.669 34.3C125.092 34.3 125.6 34.3843 126.023 34.4686C126.446 34.5529 126.869 34.7214 127.292 34.89C127.716 35.0585 128.054 35.2271 128.393 35.3956C128.731 35.5642 128.901 35.7327 128.985 35.9013C129.07 35.9856 129.154 36.1541 129.154 36.1541C129.154 36.2384 129.239 36.3227 129.239 36.4069C129.239 36.4912 129.239 36.6598 129.324 36.8283C129.324 36.9969 129.324 37.1654 129.324 37.4182C129.324 37.6711 129.324 37.8396 129.324 38.0082C129.324 38.1767 129.324 38.3453 129.239 38.4295C129.154 38.5138 129.154 38.6824 129.07 38.6824C128.985 38.6824 128.985 38.7666 128.901 38.7666C128.816 38.7666 128.562 38.6824 128.393 38.5138C128.139 38.3453 127.885 38.0924 127.462 37.9239C127.123 37.6711 126.7 37.5025 126.192 37.334C125.684 37.1654 125.177 37.0811 124.584 37.0811C123.992 37.0811 123.484 37.1654 123.145 37.334C122.722 37.5025 122.384 37.7553 122.13 38.0924C121.876 38.4295 121.622 38.7666 121.537 39.188C121.368 39.6094 121.368 40.0308 121.368 40.5364C121.368 41.2106 121.537 41.8006 121.791 42.3062C122.045 42.8119 122.384 43.2332 122.807 43.6546C123.23 44.076 123.738 44.4131 124.33 44.7502C124.923 45.0873 125.43 45.4244 126.023 45.7615C126.615 46.0986 127.208 46.4357 127.716 46.8571C128.308 47.2785 128.731 47.6998 129.239 48.2898C129.662 48.7954 130.001 49.4696 130.255 50.2281C130.424 50.9023 130.509 51.7451 130.509 52.7564Z" fill="white"/>
<path d="M148.536 52.7564C148.536 53.9362 148.367 54.9475 148.028 55.8746C147.69 56.8016 147.182 57.5601 146.589 58.2343C145.997 58.9085 145.235 59.3299 144.389 59.667C143.543 60.0041 142.612 60.1726 141.681 60.1726C141.003 60.1726 140.326 60.0883 139.819 59.9198C139.226 59.7512 138.718 59.5827 138.295 59.4141C137.872 59.2456 137.449 58.9928 137.11 58.7399C136.772 58.4871 136.602 58.3186 136.433 58.15C136.349 57.9815 136.264 57.8129 136.179 57.5601C136.095 57.3073 136.095 56.9701 136.095 56.633C136.095 56.3802 136.095 56.1274 136.095 55.9588C136.095 55.7903 136.179 55.6217 136.179 55.5375C136.179 55.4532 136.264 55.3689 136.349 55.2846C136.433 55.2004 136.518 55.2004 136.602 55.2004C136.772 55.2004 136.941 55.2846 137.195 55.5375C137.449 55.7903 137.787 55.9588 138.211 56.2959C138.634 56.5488 139.142 56.8016 139.734 57.0544C140.326 57.3072 141.003 57.3915 141.765 57.3915C142.358 57.3915 142.865 57.3073 143.373 57.1387C143.881 56.9701 144.304 56.633 144.643 56.2959C144.981 55.9588 145.235 55.5375 145.489 54.9475C145.743 54.3576 145.743 53.852 145.743 53.1777C145.743 52.5035 145.574 51.8293 145.32 51.3237C145.066 50.818 144.727 50.3967 144.304 49.9753C143.881 49.5539 143.373 49.2168 142.865 48.964C142.273 48.6269 141.765 48.2898 141.173 47.9527C140.58 47.6156 140.072 47.2785 139.48 46.8571C138.972 46.4357 138.464 46.0143 138.041 45.4244C137.618 44.8345 137.28 44.2446 137.026 43.4861C136.772 42.7276 136.602 41.8848 136.602 40.8735C136.602 39.8622 136.772 38.8509 137.026 38.0924C137.364 37.2497 137.787 36.5755 138.295 35.9856C138.803 35.3956 139.48 34.9743 140.242 34.7214C141.003 34.4686 141.85 34.3 142.696 34.3C143.119 34.3 143.627 34.3843 144.05 34.4686C144.474 34.5529 144.897 34.7214 145.32 34.89C145.743 35.0585 146.082 35.2271 146.42 35.3956C146.759 35.5642 146.928 35.7327 147.013 35.9013C147.097 35.9856 147.182 36.1541 147.182 36.1541C147.182 36.2384 147.267 36.3227 147.267 36.4069C147.267 36.4912 147.267 36.6598 147.351 36.8283C147.351 36.9969 147.351 37.1654 147.351 37.4182C147.351 37.6711 147.351 37.8396 147.351 38.0082C147.351 38.1767 147.351 38.3453 147.267 38.4295C147.182 38.5138 147.182 38.6824 147.097 38.6824C147.013 38.6824 147.013 38.7666 146.928 38.7666C146.843 38.7666 146.589 38.6824 146.42 38.5138C146.166 38.3453 145.912 38.0924 145.489 37.9239C145.151 37.6711 144.727 37.5025 144.22 37.334C143.712 37.1654 143.204 37.0811 142.612 37.0811C142.019 37.0811 141.511 37.1654 141.173 37.334C140.75 37.5025 140.411 37.7553 140.157 38.0924C139.903 38.4295 139.649 38.7666 139.565 39.188C139.395 39.6094 139.395 40.0308 139.395 40.5364C139.395 41.2106 139.565 41.8006 139.819 42.3062C140.072 42.8119 140.411 43.2332 140.834 43.6546C141.257 44.076 141.765 44.4131 142.358 44.7502C142.95 45.0873 143.458 45.4244 144.05 45.7615C144.643 46.0986 145.235 46.4357 145.743 46.8571C146.336 47.2785 146.759 47.6998 147.267 48.2898C147.69 48.7954 148.028 49.4696 148.282 50.2281C148.451 50.9023 148.536 51.7451 148.536 52.7564Z" fill="white"/>
<path d="M170.626 37.7554C170.711 37.9239 170.711 38.0082 170.795 38.0925C170.795 38.1767 170.795 38.261 170.711 38.3453C170.626 38.4296 170.541 38.4296 170.457 38.5138C170.288 38.5138 170.118 38.5981 169.949 38.5981C169.78 38.5981 169.526 38.5981 169.441 38.5981C169.272 38.5981 169.187 38.5138 169.103 38.5138C169.018 38.4296 168.933 38.4296 168.849 38.3453C168.764 38.261 168.679 38.1767 168.595 38.0082L165.717 33.4573C165.633 33.373 165.548 33.2045 165.548 33.1202C165.548 33.0359 165.548 32.9517 165.633 32.8674C165.717 32.7831 165.802 32.6988 166.056 32.6988C166.225 32.6146 166.479 32.6146 166.733 32.6146C166.987 32.6146 167.156 32.6146 167.41 32.6146C167.579 32.6146 167.748 32.6988 167.833 32.6988C167.918 32.7831 168.087 32.7831 168.172 32.9517C168.256 33.0359 168.341 33.1202 168.426 33.2888L170.626 37.7554Z" fill="white"/>
<path d="M192.124 59.2456C192.124 59.3299 192.124 59.4142 192.039 59.4984C192.039 59.5827 191.954 59.667 191.785 59.667C191.616 59.667 191.531 59.7513 191.362 59.8355C191.193 59.8355 190.939 59.9198 190.685 59.9198C190.346 59.9198 190.008 59.9198 189.754 59.8355C189.5 59.8355 189.331 59.7513 189.246 59.5827C189.161 59.4142 189.077 59.3299 188.992 59.2456L181.459 46.6886V59.2456C181.459 59.3299 181.459 59.4142 181.375 59.4984C181.375 59.5827 181.29 59.667 181.121 59.667C181.036 59.7513 180.867 59.7513 180.698 59.7513C180.528 59.7513 180.275 59.8355 180.021 59.8355C179.767 59.8355 179.513 59.8356 179.344 59.7513C179.174 59.7513 179.005 59.667 178.92 59.667C178.836 59.5827 178.751 59.5827 178.666 59.4984C178.582 59.4142 178.582 59.3299 178.582 59.2456V35.1428C178.582 35.0586 178.582 34.9743 178.666 34.89C178.751 34.8057 178.751 34.7215 178.92 34.7215C179.005 34.6372 179.174 34.6372 179.344 34.6372C179.513 34.6372 179.767 34.5529 180.021 34.5529C180.275 34.5529 180.528 34.5529 180.698 34.6372C180.867 34.6372 181.036 34.7215 181.121 34.7215C181.206 34.8057 181.29 34.8057 181.375 34.89C181.375 34.9743 181.459 35.0586 181.459 35.1428V46.3515L188.653 35.1428C188.738 35.0586 188.823 34.89 188.907 34.89C188.992 34.8057 189.077 34.7215 189.246 34.7215C189.331 34.6372 189.5 34.6372 189.669 34.6372C189.838 34.6372 190.092 34.6372 190.346 34.6372C190.6 34.6372 190.854 34.6372 191.023 34.7215C191.193 34.7215 191.362 34.8057 191.446 34.8057C191.531 34.89 191.616 34.89 191.616 34.9743C191.616 35.0586 191.7 35.1428 191.7 35.2271C191.7 35.3957 191.7 35.5642 191.616 35.7328C191.531 35.9013 191.446 36.1542 191.193 36.407L184.422 46.3515L191.7 58.3186C191.87 58.6557 191.954 58.9085 192.039 58.9928C192.039 59.0771 192.124 59.2456 192.124 59.2456Z" fill="white"/>
<path d="M214.298 46.9414C214.298 48.964 214.129 50.818 213.706 52.4193C213.283 54.0205 212.775 55.4532 211.928 56.633C211.167 57.8129 210.151 58.6557 209.051 59.2456C207.866 59.8355 206.512 60.1726 204.988 60.1726C203.465 60.1726 202.111 59.9198 201.01 59.3299C199.91 58.7399 198.979 57.9815 198.217 56.8859C197.456 55.7903 196.948 54.4419 196.609 52.8407C196.271 51.2394 196.101 49.3854 196.101 47.3627C196.101 45.3401 196.271 43.5703 196.694 41.9691C197.117 40.3679 197.625 38.9352 198.471 37.8396C199.318 36.744 200.249 35.817 201.349 35.2271C202.534 34.6371 203.888 34.3 205.411 34.3C206.935 34.3 208.204 34.5529 209.305 35.1428C210.405 35.7327 211.336 36.4912 212.098 37.5868C212.859 38.6824 213.367 39.9465 213.79 41.5477C214.129 43.0647 214.298 44.9188 214.298 46.9414ZM211.421 47.1942C211.421 45.7615 211.336 44.4131 211.082 43.2332C210.913 41.9691 210.574 40.9578 210.066 40.0308C209.559 39.1037 209.051 38.4295 208.204 37.9239C207.443 37.4182 206.427 37.1654 205.242 37.1654C204.057 37.1654 203.042 37.4182 202.28 38.0082C201.518 38.5981 200.841 39.2723 200.333 40.1993C199.825 41.1264 199.487 42.1377 199.233 43.4018C198.979 44.6659 198.894 45.9301 198.894 47.1942C198.894 48.7112 198.979 50.0596 199.233 51.2394C199.402 52.5035 199.741 53.5991 200.249 54.4419C200.756 55.3689 201.349 56.0431 202.111 56.5488C202.872 57.0544 203.888 57.3072 205.073 57.3072C206.258 57.3072 207.273 57.0544 208.035 56.4645C208.881 55.9588 209.474 55.2004 209.982 54.2733C210.49 53.3463 210.828 52.2507 210.997 51.0709C211.336 49.8067 211.421 48.5426 211.421 47.1942Z" fill="white"/>
<path d="M72.7022 25.7883L58.8219 31.0133L67.2009 29.2436L43.1643 81.4101L72.7022 25.7883Z" fill="white"/>
<path d="M56.96 77.6176C56.96 77.7019 56.8753 77.7019 56.8753 77.7019H56.7907C56.706 77.7019 56.7061 77.7019 56.6214 77.7019C56.5368 77.7019 56.4521 77.7019 56.4521 77.7019C56.3675 77.7019 56.3675 77.7019 56.3675 77.7019C56.3675 77.7019 56.2829 77.7019 56.2829 77.6176C56.2829 77.5334 56.2829 77.6176 56.2829 77.5334L55.6904 76.1007C55.6058 75.9321 55.5211 75.7636 55.4365 75.595C55.3519 75.4265 55.2672 75.3422 55.098 75.2579C55.0133 75.1737 54.8441 75.0894 54.6748 75.0894C54.5055 75.0894 54.3362 75.0051 54.167 75.0051H53.6591V77.5334C53.6591 77.5334 53.6591 77.5334 53.6591 77.6176C53.6591 77.6176 53.6591 77.6176 53.5745 77.6176H53.4899C53.4052 77.6176 53.4052 77.6176 53.3206 77.6176C53.236 77.6176 53.236 77.6176 53.1513 77.6176C53.0667 77.6176 53.0667 77.6176 53.0667 77.6176H52.9821C52.9821 77.6176 52.9821 77.6176 52.9821 77.5334V72.0555C52.9821 72.0555 52.9821 72.0555 52.9821 71.9712C52.9821 71.9712 52.9821 71.9712 53.0667 71.9712H53.1513C53.236 71.9712 53.236 71.9712 53.3206 71.9712C53.4052 71.9712 53.4052 71.9712 53.4899 71.9712C53.5745 71.9712 53.5745 71.9712 53.5745 71.9712H53.6591C53.6591 71.9712 53.6591 71.9712 53.6591 72.0555V74.4152H54.167C54.3362 74.4152 54.5055 74.4152 54.5901 74.3309C54.7594 74.3309 54.8441 74.2466 54.9287 74.1624C55.0133 74.0781 55.1826 73.9938 55.2672 73.8252C55.3519 73.6567 55.4365 73.5724 55.5211 73.4039L56.029 72.1397V72.0555C56.029 72.0555 56.029 72.0555 56.1136 71.9712H56.1982C56.2829 71.9712 56.2829 71.9712 56.3675 71.9712C56.4521 71.9712 56.4521 71.9712 56.5368 71.9712C56.6214 71.9712 56.6214 71.9712 56.6214 71.9712C56.6214 71.9712 56.6214 71.9712 56.706 71.9712C56.706 71.9712 56.706 71.9712 56.706 72.0555V72.1397V72.224L56.1136 73.4881C56.029 73.6567 55.9443 73.8253 55.8597 73.9938C55.7751 74.1624 55.6904 74.2466 55.6058 74.3309C55.5211 74.4152 55.4365 74.4995 55.3519 74.4995C55.2672 74.5837 55.1826 74.5837 55.098 74.5837C55.2672 74.668 55.3519 74.668 55.5211 74.7523C55.6058 74.8366 55.7751 74.9208 55.8597 75.0051C55.9443 75.0894 56.029 75.2579 56.1136 75.3422C56.1982 75.5108 56.2829 75.595 56.3675 75.7636L56.96 77.1963C56.96 77.1963 56.96 77.1963 56.96 77.2805C56.8753 77.5334 56.8753 77.5334 56.96 77.6176C56.96 77.5334 56.96 77.5334 56.96 77.6176Z" fill="white"/>
<path d="M64.9157 77.6177C64.9157 77.702 64.8311 77.702 64.8311 77.702H64.7464C64.6618 77.702 64.6618 77.702 64.5772 77.702C64.4925 77.702 64.4079 77.702 64.4079 77.702C64.3233 77.702 64.3233 77.702 64.3233 77.702C64.3233 77.702 64.2386 77.702 64.2386 77.6177C64.2386 77.6177 64.2386 77.6177 64.2386 77.5334V72.6454H62.5459C62.4613 73.3196 62.3766 73.8253 62.292 74.331C62.2074 74.8366 62.1227 75.258 62.0381 75.6794C61.9535 76.0165 61.7842 76.3536 61.6996 76.6064C61.5303 76.8592 61.4456 77.1121 61.2764 77.2806C61.1071 77.4492 60.9378 77.5334 60.7686 77.6177C60.5993 77.702 60.3454 77.702 60.1761 77.702H60.0915C60.0915 77.702 60.0915 77.702 60.0068 77.6177V77.5334C60.0068 77.5334 60.0068 77.4492 60.0068 77.3649C60.0068 77.2806 60.0068 77.2806 60.0068 77.1963C60.0068 77.1121 60.0068 77.1121 60.0068 77.1121C60.0068 77.1121 60.0068 77.0278 60.0915 77.0278C60.0915 77.0278 60.0915 77.0278 60.1761 77.0278C60.3454 77.0278 60.43 77.0278 60.5993 76.9435C60.7686 76.8592 60.8532 76.775 60.9378 76.6064C61.0225 76.4378 61.1917 76.2693 61.2764 76.0165C61.361 75.7636 61.4456 75.5108 61.5303 75.0894C61.6149 74.7523 61.6996 74.331 61.7842 73.8253C61.8688 73.3196 61.9535 72.814 61.9535 72.2241C61.9535 72.1398 61.9535 72.0555 62.0381 71.9712C62.0381 71.887 62.1227 71.887 62.2074 71.887H64.7464C64.8311 71.887 64.8311 71.887 64.9157 71.9712C65.0003 72.0555 65.0004 72.0555 65.0004 72.2241V77.6177H64.9157Z" fill="white"/>
<path d="M73.8025 77.6177C73.8025 77.702 73.7179 77.702 73.7179 77.702H73.6332C73.5486 77.702 73.5486 77.702 73.464 77.702C73.3793 77.702 73.3793 77.702 73.2947 77.702C73.21 77.702 73.21 77.702 73.21 77.702C73.21 77.702 73.1254 77.702 73.1254 77.6177C73.1254 77.6177 73.1254 77.6177 73.1254 77.5334V74.0781C73.1254 73.9096 73.1254 73.741 73.1254 73.6568C73.1254 73.4882 73.1254 73.3196 73.1254 73.2354C73.0408 73.4039 72.9561 73.5725 72.7869 73.6568C72.7022 73.8253 72.533 73.9939 72.4483 74.0781L69.9092 77.5334C69.9092 77.5334 69.9092 77.6177 69.8246 77.6177C69.8246 77.6177 69.8246 77.6177 69.74 77.702H69.6553C69.6553 77.702 69.5707 77.702 69.4861 77.702C69.4014 77.702 69.4014 77.702 69.3168 77.702H69.2322C69.2322 77.702 69.2322 77.702 69.1475 77.6177C69.1475 77.6177 69.1475 77.6177 69.1475 77.5334V72.1398V72.0555C69.1475 72.0555 69.1475 72.0555 69.2322 71.9712C69.3168 71.887 69.3168 71.9712 69.3168 71.9712C69.4014 71.9712 69.4014 71.9712 69.4861 71.9712C69.6553 71.9712 69.74 71.9712 69.74 71.9712C69.8246 71.9712 69.8246 72.0555 69.8246 72.0555V75.5951C69.8246 75.7636 69.8246 75.8479 69.8246 76.0165C69.8246 76.185 69.8246 76.2693 69.8246 76.4378C69.9092 76.2693 69.9939 76.185 70.0785 76.0165C70.1632 75.8479 70.2478 75.7636 70.3324 75.5951L72.8715 72.0555C72.8715 72.0555 72.8715 71.9712 72.9561 71.9712C72.9561 71.9712 73.0408 71.9712 73.0408 71.887H73.1254C73.1254 71.887 73.21 71.887 73.2947 71.887C73.3793 71.887 73.3793 71.887 73.464 71.887H73.5486C73.5486 71.887 73.5486 71.887 73.6332 71.9712C73.6332 71.9712 73.6332 71.9712 73.6332 72.0555V77.6177H73.8025Z" fill="white"/>
<path d="M82.6047 77.6177C82.6047 77.702 82.52 77.702 82.52 77.702H82.4354C82.3508 77.702 82.3508 77.702 82.2661 77.702C82.1815 77.702 82.0969 77.702 82.0969 77.702C82.0122 77.702 82.0122 77.702 82.0122 77.702C82.0122 77.702 81.9276 77.702 81.9276 77.6177C81.9276 77.6177 81.9276 77.6177 81.9276 77.5334V75.0051H78.8807V77.5334V77.6177C78.8807 77.6177 78.8807 77.6177 78.7961 77.702H78.7114C78.6268 77.702 78.6268 77.702 78.5422 77.702C78.4575 77.702 78.4575 77.702 78.3729 77.702C78.2882 77.702 78.2882 77.702 78.2882 77.702C78.2882 77.702 78.2036 77.702 78.2036 77.6177C78.2036 77.5334 78.2036 77.6177 78.2036 77.5334V72.1398V72.0555C78.2036 72.0555 78.2036 72.0555 78.2882 71.9712C78.3729 71.887 78.3729 71.9712 78.3729 71.9712C78.4575 71.9712 78.4575 71.9712 78.5422 71.9712C78.6268 71.9712 78.7114 71.9712 78.7114 71.9712C78.7961 71.9712 78.7961 71.9712 78.7961 71.9712C78.7961 71.9712 78.8807 71.9712 78.8807 72.0555C78.8807 72.0555 78.8807 72.0555 78.8807 72.1398V74.4152H81.9276V72.1398V72.0555C81.9276 72.0555 81.9276 72.0555 82.0122 71.9712C82.0969 71.887 82.0969 71.9712 82.0969 71.9712C82.1815 71.9712 82.1815 71.9712 82.2661 71.9712C82.3508 71.9712 82.3508 71.9712 82.4354 71.9712C82.52 71.9712 82.52 71.9712 82.52 71.9712C82.52 71.9712 82.6047 71.9712 82.6047 72.0555C82.6047 72.0555 82.6047 72.0555 82.6047 72.1398V77.6177Z" fill="white"/>
<path d="M91.4914 77.6177C91.4914 77.702 91.4068 77.702 91.4068 77.702H91.3221C91.2375 77.702 91.2375 77.702 91.1528 77.702C91.0682 77.702 91.0682 77.702 90.9836 77.702C90.8989 77.702 90.8989 77.702 90.8989 77.702C90.8989 77.702 90.8143 77.702 90.8143 77.6177C90.8143 77.6177 90.8143 77.6177 90.8143 77.5334V74.0781C90.8143 73.9096 90.8143 73.741 90.8143 73.6568C90.8143 73.4882 90.8143 73.3196 90.8143 73.2354C90.7297 73.4039 90.645 73.5725 90.4758 73.6568C90.3911 73.8253 90.2219 73.9939 90.1372 74.0781L87.5981 77.5334C87.5981 77.5334 87.5981 77.6177 87.5135 77.6177C87.5135 77.6177 87.5135 77.6177 87.4289 77.702H87.3442C87.3442 77.702 87.2596 77.702 87.175 77.702C87.0903 77.702 87.0903 77.702 87.0057 77.702H86.9211C86.9211 77.702 86.9211 77.702 86.8364 77.6177C86.8364 77.6177 86.8364 77.6177 86.8364 77.5334V72.1398V72.0555C86.8364 72.0555 86.8364 72.0555 86.9211 71.9712C87.0057 71.887 87.0057 71.9712 87.0057 71.9712C87.0903 71.9712 87.0903 71.9712 87.175 71.9712C87.3442 71.9712 87.4289 71.9712 87.4289 71.9712C87.5135 71.9712 87.5135 72.0555 87.5135 72.0555V75.5951C87.5135 75.7636 87.5135 75.8479 87.5135 76.0165C87.5135 76.185 87.5135 76.2693 87.5135 76.4378C87.5981 76.2693 87.6828 76.185 87.7674 76.0165C87.8521 75.8479 87.9367 75.7636 88.0213 75.5951L90.5604 72.0555C90.5604 72.0555 90.5604 71.9712 90.645 71.9712C90.645 71.9712 90.7297 71.9712 90.7297 71.887H90.8143C90.8143 71.887 90.8989 71.887 90.9836 71.887C91.0682 71.887 91.0682 71.887 91.1528 71.887H91.2375C91.2375 71.887 91.2375 71.887 91.3221 71.9712C91.3221 71.9712 91.3221 71.9712 91.3221 72.0555V77.6177H91.4914Z" fill="white"/>
<path d="M100.378 77.6177C100.378 77.702 100.294 77.702 100.294 77.702H100.209C100.124 77.702 100.124 77.702 100.04 77.702C99.955 77.702 99.8704 77.702 99.8704 77.702C99.7857 77.702 99.7857 77.702 99.7857 77.702C99.7857 77.702 99.7011 77.702 99.7011 77.6177C99.7011 77.6177 99.7011 77.6177 99.7011 77.5334V75.0051H96.6542V77.5334V77.6177C96.6542 77.6177 96.6542 77.6177 96.5696 77.702H96.4849C96.4003 77.702 96.4003 77.702 96.3157 77.702C96.231 77.702 96.231 77.702 96.1464 77.702C96.0617 77.702 96.0617 77.702 96.0617 77.702C96.0617 77.702 95.9771 77.702 95.9771 77.6177C95.9771 77.5334 95.9771 77.6177 95.9771 77.5334V72.1398V72.0555C95.9771 72.0555 95.9771 72.0555 96.0617 71.9712H96.1464C96.231 71.9712 96.231 71.9712 96.3157 71.9712C96.4003 71.9712 96.4849 71.9712 96.4849 71.9712C96.5696 71.9712 96.5696 71.9712 96.5696 71.9712C96.5696 71.9712 96.6542 71.9712 96.6542 72.0555C96.6542 72.0555 96.6542 72.0555 96.6542 72.1398V74.4152H99.7011V72.1398V72.0555C99.7011 72.0555 99.7011 72.0555 99.7857 71.9712C99.8704 71.887 99.8704 71.9712 99.8704 71.9712C99.955 71.9712 99.955 71.9712 100.04 71.9712C100.124 71.9712 100.124 71.9712 100.209 71.9712C100.294 71.9712 100.294 71.9712 100.294 71.9712C100.294 71.9712 100.378 71.9712 100.378 72.0555C100.378 72.0555 100.378 72.0555 100.378 72.1398V77.6177Z" fill="white"/>
<path d="M107.826 72.3926C107.826 72.4769 107.826 72.4769 107.826 72.5611V72.6454C107.826 72.6454 107.826 72.7297 107.741 72.7297H107.657H105.456V77.6177V77.7019C105.456 77.7019 105.456 77.7019 105.372 77.7862H105.287C105.202 77.7862 105.202 77.7862 105.118 77.7862C105.033 77.7862 105.033 77.7862 104.949 77.7862C104.864 77.7862 104.864 77.7862 104.864 77.7862C104.864 77.7862 104.779 77.7862 104.779 77.7019C104.779 77.6177 104.779 77.7019 104.779 77.6177V72.3926C104.779 72.3083 104.779 72.224 104.864 72.1398C104.949 72.0555 104.949 72.0555 105.033 72.0555H107.657H107.741C107.741 72.0555 107.741 72.0555 107.826 72.1398V72.224C107.826 72.3083 107.826 72.3926 107.826 72.3926Z" fill="white"/>
<path d="M115.951 74.8366C115.951 75.2579 115.867 75.6793 115.782 76.0164C115.697 76.3535 115.528 76.6906 115.274 76.9434C115.02 77.1963 114.766 77.4491 114.428 77.5334C114.089 77.6176 113.751 77.7862 113.243 77.7862C112.82 77.7862 112.481 77.7019 112.143 77.6176C111.804 77.4491 111.55 77.2805 111.381 77.0277C111.127 76.7749 111.042 76.4378 110.873 76.1007C110.788 75.7636 110.704 75.3422 110.704 74.9208C110.704 74.4995 110.788 74.0781 110.873 73.741C110.958 73.4039 111.127 73.0668 111.381 72.8139C111.635 72.5611 111.889 72.3083 112.227 72.224C112.566 72.0555 112.904 71.9712 113.412 71.9712C113.835 71.9712 114.174 72.0555 114.512 72.1397C114.851 72.3083 115.105 72.4768 115.274 72.7297C115.443 72.9825 115.613 73.2353 115.782 73.6567C115.951 73.9938 115.951 74.4152 115.951 74.8366ZM115.274 74.9208C115.274 74.5837 115.274 74.3309 115.189 74.0781C115.105 73.8252 115.02 73.5724 114.851 73.3196C114.682 73.0668 114.512 72.8982 114.258 72.8139C114.005 72.7297 113.751 72.6454 113.412 72.6454C113.074 72.6454 112.82 72.7297 112.566 72.8139C112.312 72.8982 112.143 73.0668 111.973 73.3196C111.804 73.4881 111.719 73.741 111.635 74.0781C111.55 74.3309 111.55 74.668 111.55 75.0051C111.55 75.3422 111.55 75.595 111.635 75.8479C111.719 76.1007 111.804 76.3535 111.973 76.6063C112.143 76.7749 112.312 76.9434 112.566 77.112C112.82 77.1963 113.074 77.2805 113.412 77.2805C113.751 77.2805 114.005 77.1963 114.258 77.112C114.512 77.0277 114.682 76.8592 114.851 76.6063C115.02 76.4378 115.105 76.185 115.189 75.8479C115.189 75.5108 115.274 75.2579 115.274 74.9208Z" fill="white"/>
<path d="M124.161 76.0164C124.161 76.2693 124.076 76.5221 123.992 76.7749C123.907 77.0277 123.738 77.1963 123.568 77.2806C123.399 77.3648 123.145 77.5334 122.807 77.6177C122.553 77.7019 122.13 77.7019 121.791 77.7019C121.706 77.7019 121.537 77.7019 121.452 77.7019C121.368 77.7019 121.199 77.7019 121.114 77.7019C121.029 77.7019 120.86 77.7019 120.775 77.7019C120.691 77.7019 120.606 77.7019 120.437 77.7019C120.268 77.7019 120.183 77.6177 120.098 77.5334C120.014 77.4491 120.014 77.3648 120.014 77.1963V72.5611C120.014 72.3926 120.014 72.3083 120.098 72.224C120.183 72.1398 120.268 72.0555 120.437 72.0555C120.521 72.0555 120.691 72.0555 120.775 72.0555C120.86 72.0555 121.029 72.0555 121.114 72.0555C121.199 72.0555 121.368 72.0555 121.452 72.0555C121.537 72.0555 121.706 72.0555 121.791 72.0555C122.13 72.0555 122.468 72.0555 122.722 72.1398C122.976 72.224 123.23 72.3083 123.399 72.3926C123.568 72.4769 123.738 72.6454 123.822 72.814C123.907 72.9825 123.992 73.2353 123.992 73.4039C123.992 73.6567 123.907 73.9095 123.738 74.1624C123.568 74.4152 123.314 74.4995 123.061 74.668C123.484 74.7523 123.738 74.9208 123.907 75.1737C123.992 75.4265 124.161 75.6793 124.161 76.0164ZM123.23 73.4882C123.23 73.3196 123.23 73.2353 123.145 73.0668C123.061 72.9825 122.976 72.814 122.891 72.814C122.807 72.7297 122.637 72.6454 122.383 72.6454C122.214 72.6454 121.96 72.5611 121.706 72.5611C121.537 72.5611 121.283 72.5611 121.114 72.5611C120.945 72.5611 120.775 72.5611 120.691 72.5611V74.4152H121.791C122.214 74.4152 122.553 74.3309 122.807 74.1624C123.061 73.9938 123.23 73.8253 123.23 73.4882ZM123.399 76.1007C123.399 75.9322 123.399 75.7636 123.314 75.6793C123.23 75.5108 123.145 75.4265 122.976 75.3422C122.807 75.258 122.637 75.1737 122.468 75.1737C122.299 75.0894 122.045 75.0894 121.706 75.0894H120.606V77.1963C120.691 77.1963 120.775 77.1963 120.86 77.1963C120.945 77.1963 121.029 77.1963 121.114 77.1963C121.199 77.1963 121.283 77.1963 121.368 77.1963C121.452 77.1963 121.537 77.1963 121.622 77.1963C121.876 77.1963 122.13 77.1963 122.299 77.112C122.468 77.0277 122.637 77.0277 122.807 76.8592C122.976 76.7749 123.061 76.6064 123.061 76.5221C123.314 76.4378 123.399 76.2693 123.399 76.1007Z" fill="white"/>
<path d="M131.947 77.6177V77.7019C131.947 77.7019 131.863 77.7019 131.863 77.7862C131.863 77.7862 131.778 77.7862 131.693 77.7862C131.609 77.7862 131.609 77.7862 131.524 77.7862C131.44 77.7862 131.44 77.7862 131.44 77.7019V77.6177V77.0277C131.186 77.2806 130.932 77.5334 130.678 77.6177C130.424 77.7862 130.085 77.8705 129.747 77.8705C129.493 77.8705 129.239 77.8705 128.985 77.7862C128.731 77.7019 128.562 77.6177 128.393 77.4491C128.223 77.2806 128.139 77.112 128.054 76.9435C127.969 76.7749 127.969 76.5221 127.969 76.2692C127.969 75.9321 128.054 75.6793 128.139 75.5108C128.223 75.2579 128.477 75.0894 128.647 74.9208C128.9 74.7523 129.154 74.668 129.493 74.5837C129.831 74.4995 130.17 74.4995 130.509 74.4995H131.355V74.0781C131.355 73.8253 131.355 73.6567 131.27 73.4882C131.186 73.3196 131.186 73.1511 131.016 73.0668C130.932 72.9825 130.762 72.8982 130.593 72.814C130.424 72.7297 130.255 72.7297 130.001 72.7297C129.747 72.7297 129.578 72.7297 129.324 72.814C129.154 72.8982 128.985 72.8982 128.816 72.9825C128.647 73.0668 128.562 73.1511 128.477 73.1511C128.393 73.2353 128.308 73.2353 128.308 73.2353H128.223C128.223 73.2353 128.223 73.2353 128.139 73.1511V73.0668V72.9825C128.139 72.8982 128.139 72.814 128.139 72.814C128.139 72.7297 128.223 72.7297 128.223 72.6454C128.308 72.5611 128.393 72.5611 128.477 72.4769C128.562 72.3926 128.731 72.3083 128.9 72.3083C129.07 72.224 129.239 72.224 129.408 72.1398C129.578 72.1398 129.747 72.0555 130.001 72.0555C130.339 72.0555 130.678 72.1398 130.932 72.224C131.186 72.3083 131.355 72.4769 131.524 72.6454C131.693 72.814 131.778 72.9825 131.863 73.2353C131.947 73.4882 131.947 73.741 131.947 74.0781V77.6177ZM131.186 75.0051H130.17C129.916 75.0051 129.662 75.0051 129.408 75.0894C129.154 75.1737 128.985 75.2579 128.9 75.3422C128.731 75.4265 128.647 75.595 128.562 75.6793C128.477 75.7636 128.477 76.0164 128.477 76.185C128.477 76.5221 128.562 76.7749 128.731 76.9435C128.9 77.112 129.239 77.1963 129.578 77.1963C129.831 77.1963 130.085 77.112 130.339 76.9435C130.593 76.7749 130.847 76.6064 131.101 76.2692V75.0051H131.186Z" fill="white"/>
<path d="M139.903 77.6177C139.903 77.702 139.818 77.702 139.818 77.702H139.734C139.649 77.702 139.649 77.702 139.565 77.702C139.48 77.702 139.48 77.702 139.395 77.702C139.311 77.702 139.311 77.702 139.311 77.702C139.311 77.702 139.226 77.702 139.226 77.6177C139.226 77.6177 139.226 77.6177 139.226 77.5334V75.1737H138.549C138.295 75.1737 138.041 75.1737 137.872 75.258C137.703 75.3422 137.618 75.3422 137.449 75.5108C137.364 75.5951 137.195 75.7636 137.11 75.8479C137.026 76.0164 136.941 76.185 136.856 76.4378L136.348 77.5334C136.348 77.6177 136.348 77.6177 136.264 77.6177L136.179 77.702H136.095C136.01 77.702 136.01 77.702 135.925 77.702H135.841H135.756H135.671C135.671 77.702 135.671 77.702 135.671 77.6177V77.5334C135.671 77.4491 135.756 77.3648 135.756 77.2806L136.179 76.185C136.264 75.9322 136.433 75.6793 136.602 75.5108C136.772 75.3422 136.941 75.1737 137.195 75.0894C136.772 75.0051 136.518 74.8366 136.264 74.668C136.01 74.4152 135.925 74.1624 135.925 73.741C135.925 73.4882 136.01 73.2354 136.095 73.0668C136.179 72.8982 136.348 72.7297 136.518 72.5611C136.687 72.3926 136.941 72.3083 137.279 72.224C137.533 72.1398 137.872 72.1398 138.295 72.1398C138.38 72.1398 138.464 72.1398 138.549 72.1398C138.634 72.1398 138.803 72.1398 138.888 72.1398C138.972 72.1398 139.141 72.1398 139.226 72.1398C139.311 72.1398 139.395 72.1398 139.48 72.1398C139.565 72.1398 139.649 72.224 139.734 72.224C139.819 72.3083 139.818 72.3926 139.818 72.4769V77.6177H139.903ZM139.226 72.6454C139.057 72.6454 138.887 72.6454 138.718 72.6454C138.549 72.6454 138.38 72.6454 138.295 72.6454C137.956 72.6454 137.703 72.6454 137.533 72.7297C137.364 72.814 137.195 72.814 137.025 72.9825C136.941 73.0668 136.856 73.1511 136.772 73.3196C136.687 73.4039 136.687 73.5725 136.687 73.741C136.687 73.9096 136.687 73.9938 136.772 74.1624C136.856 74.2467 136.941 74.4152 137.025 74.4995C137.11 74.5838 137.279 74.668 137.449 74.668C137.618 74.7523 137.872 74.7523 138.21 74.7523H139.141V72.6454H139.226Z" fill="white"/>
<path d="M153.53 77.6176C153.53 77.7019 153.445 77.7019 153.445 77.7019H153.36C153.276 77.7019 153.276 77.7019 153.191 77.7019C153.106 77.7019 153.022 77.7019 153.022 77.7019C152.937 77.7019 152.937 77.7019 152.937 77.7019C152.937 77.7019 152.852 77.7019 152.852 77.6176C152.852 77.6176 152.852 77.6176 152.852 77.5334L152.26 76.1007C152.175 75.9321 152.091 75.7636 152.006 75.595C151.921 75.4265 151.837 75.3422 151.668 75.2579C151.583 75.1737 151.414 75.0894 151.244 75.0894C151.075 75.0894 150.906 75.0051 150.737 75.0051H150.229V77.5334C150.229 77.5334 150.229 77.5334 150.229 77.6176C150.229 77.6176 150.229 77.6176 150.144 77.6176H150.059C149.975 77.6176 149.975 77.6176 149.89 77.6176C149.806 77.6176 149.806 77.6176 149.721 77.6176C149.636 77.6176 149.636 77.6176 149.636 77.6176H149.552C149.552 77.6176 149.552 77.6176 149.552 77.5334V72.0555C149.552 72.0555 149.552 72.0555 149.552 71.9712C149.552 71.9712 149.552 71.9712 149.636 71.9712H149.721C149.806 71.9712 149.806 71.9712 149.89 71.9712C149.975 71.9712 149.975 71.9712 150.059 71.9712C150.144 71.9712 150.144 71.9712 150.144 71.9712H150.229C150.229 71.9712 150.229 71.9712 150.229 72.0555V74.4152H150.737C150.906 74.4152 151.075 74.4152 151.16 74.3309C151.329 74.3309 151.414 74.2466 151.498 74.1624C151.583 74.0781 151.752 73.9938 151.837 73.8252C151.921 73.6567 152.006 73.5724 152.091 73.4039L152.599 72.1397V72.0555C152.599 72.0555 152.599 72.0555 152.683 71.9712H152.768C152.852 71.9712 152.852 71.9712 152.937 71.9712C153.022 71.9712 153.022 71.9712 153.106 71.9712C153.191 71.9712 153.191 71.9712 153.191 71.9712C153.191 71.9712 153.191 71.9712 153.276 71.9712C153.276 71.9712 153.276 71.9712 153.276 72.0555V72.1397V72.224L152.683 73.4881C152.599 73.6567 152.514 73.8253 152.429 73.9938C152.345 74.1624 152.26 74.2466 152.175 74.3309C152.091 74.4152 152.006 74.4995 151.921 74.4995C151.837 74.5837 151.752 74.5837 151.668 74.5837C151.837 74.668 151.921 74.668 152.091 74.7523C152.175 74.8366 152.345 74.9208 152.429 75.0051C152.514 75.0894 152.599 75.2579 152.683 75.3422C152.768 75.5108 152.852 75.595 152.937 75.7636L153.53 77.1963C153.53 77.1963 153.53 77.1963 153.53 77.2805C153.53 77.5334 153.53 77.5334 153.53 77.6176C153.53 77.5334 153.53 77.5334 153.53 77.6176Z" fill="white"/>
<path d="M162.078 74.8366C162.078 75.2579 161.993 75.6793 161.908 76.0164C161.824 76.3535 161.655 76.6906 161.401 76.9434C161.147 77.1963 160.893 77.4491 160.554 77.5334C160.216 77.6176 159.877 77.7862 159.369 77.7862C158.946 77.7862 158.608 77.7019 158.269 77.6176C157.931 77.4491 157.677 77.2805 157.507 77.0277C157.254 76.7749 157.169 76.4378 157 76.1007C156.915 75.7636 156.83 75.3422 156.83 74.9208C156.83 74.4995 156.915 74.0781 157 73.741C157.084 73.4039 157.254 73.0668 157.507 72.8139C157.761 72.5611 158.015 72.3083 158.354 72.224C158.692 72.0555 159.031 71.9712 159.539 71.9712C159.962 71.9712 160.3 72.0555 160.639 72.1397C160.977 72.3083 161.231 72.4768 161.401 72.7297C161.57 72.9825 161.739 73.2353 161.908 73.6567C161.993 73.9938 162.078 74.4152 162.078 74.8366ZM161.316 74.9208C161.316 74.5837 161.316 74.3309 161.231 74.0781C161.147 73.8252 161.062 73.5724 160.893 73.3196C160.724 73.0668 160.554 72.8982 160.3 72.8139C160.046 72.7297 159.793 72.6454 159.454 72.6454C159.115 72.6454 158.862 72.7297 158.608 72.8139C158.354 72.8982 158.184 73.0668 158.015 73.3196C157.846 73.4881 157.761 73.741 157.677 74.0781C157.592 74.3309 157.592 74.668 157.592 75.0051C157.592 75.3422 157.592 75.595 157.677 75.8479C157.761 76.1007 157.846 76.3535 158.015 76.6063C158.184 76.7749 158.354 76.9434 158.608 77.112C158.862 77.1963 159.115 77.2805 159.454 77.2805C159.793 77.2805 160.046 77.1963 160.3 77.112C160.554 77.0277 160.724 76.8592 160.893 76.6063C161.062 76.4378 161.147 76.185 161.231 75.8479C161.316 75.5108 161.316 75.2579 161.316 74.9208Z" fill="white"/>
<path d="M172.488 77.5334C172.488 77.6177 172.488 77.702 172.403 77.702C172.403 77.702 172.234 77.7862 172.149 77.7862C172.065 77.7862 171.98 77.7862 171.98 77.7862C171.896 77.7862 171.896 77.7862 171.896 77.7862H171.811C171.811 77.7862 171.811 77.7862 171.811 77.702L171.388 74.4152C171.388 74.3309 171.388 74.1624 171.388 74.0781C171.388 73.9096 171.388 73.8253 171.388 73.6567C171.388 73.4882 171.388 73.4039 171.388 73.2354C171.388 73.0668 171.388 72.9825 171.388 72.8983V72.7297C171.388 72.814 171.303 72.9825 171.303 73.0668C171.218 73.2354 171.218 73.3196 171.134 73.4882C171.049 73.6567 171.049 73.741 170.965 73.9096C170.88 74.0781 170.88 74.1624 170.795 74.2467L169.61 77.5334C169.61 77.6177 169.61 77.6177 169.526 77.6177C169.526 77.6177 169.526 77.702 169.441 77.702C169.356 77.702 169.356 77.702 169.356 77.702C169.356 77.702 169.272 77.702 169.187 77.702C169.103 77.702 169.103 77.702 169.018 77.702H168.933C168.933 77.702 168.849 77.702 168.849 77.6177C168.849 77.6177 168.849 77.5334 168.764 77.5334L167.579 74.2467C167.494 74.1624 167.494 73.9938 167.41 73.9096C167.325 73.741 167.325 73.6567 167.241 73.4882C167.156 73.3196 167.156 73.2354 167.071 73.0668C167.071 72.8982 166.987 72.814 166.987 72.7297V72.8983C166.987 72.9825 166.987 73.1511 166.987 73.2354C166.987 73.4039 166.987 73.4882 166.902 73.6567C166.902 73.8253 166.902 73.9096 166.817 74.0781C166.733 74.2467 166.817 74.3309 166.817 74.4152L166.394 77.6177C166.394 77.702 166.394 77.702 166.394 77.702C166.394 77.702 166.394 77.7862 166.31 77.7862H166.225C166.14 77.7862 166.14 77.7862 166.056 77.7862C165.971 77.7862 165.886 77.7862 165.886 77.7862C165.802 77.7862 165.802 77.7862 165.802 77.7862C165.802 77.7862 165.802 77.7862 165.802 77.702V77.6177L166.394 72.4769C166.394 72.3926 166.479 72.3083 166.479 72.224C166.563 72.1398 166.648 72.1398 166.733 72.1398H167.071C167.156 72.1398 167.241 72.1398 167.325 72.1398C167.41 72.1398 167.41 72.1398 167.494 72.224C167.579 72.224 167.579 72.3083 167.579 72.3926C167.579 72.4769 167.664 72.5611 167.664 72.6454L168.595 75.1737C168.679 75.3422 168.679 75.5108 168.764 75.5951C168.849 75.7636 168.849 75.8479 168.933 76.0164C169.018 76.185 169.018 76.2693 169.103 76.4378C169.103 76.6064 169.187 76.6906 169.187 76.8592C169.187 76.6906 169.272 76.6064 169.272 76.4378C169.356 76.2693 169.356 76.185 169.441 76.0164C169.526 75.8479 169.526 75.7636 169.61 75.5951C169.695 75.4265 169.695 75.3422 169.78 75.1737L170.711 72.6454C170.711 72.5611 170.795 72.4769 170.795 72.4769C170.795 72.3926 170.88 72.3926 170.88 72.3083C170.965 72.3083 170.965 72.224 171.049 72.224C171.134 72.224 171.218 72.224 171.303 72.224H171.642C171.726 72.224 171.811 72.224 171.896 72.3083C171.98 72.3926 171.98 72.3926 171.98 72.5611L172.488 77.5334Z" fill="white"/>
<path d="M180.782 77.6176C180.782 77.7019 180.698 77.7019 180.698 77.7019H180.613C180.528 77.7019 180.528 77.7019 180.444 77.7019C180.359 77.7019 180.274 77.7019 180.274 77.7019C180.19 77.7019 180.19 77.7019 180.19 77.7019C180.19 77.7019 180.105 77.7019 180.105 77.6176C180.105 77.6176 180.105 77.6176 180.105 77.5334V72.6454H177.228V77.5334V77.6176C177.228 77.6176 177.228 77.6176 177.143 77.7019H177.058C176.974 77.7019 176.974 77.7019 176.889 77.7019C176.804 77.7019 176.804 77.7019 176.72 77.7019C176.635 77.7019 176.635 77.7019 176.635 77.7019C176.635 77.7019 176.551 77.7019 176.551 77.6176C176.551 77.6176 176.551 77.6176 176.551 77.5334V72.3083C176.551 72.224 176.551 72.1397 176.635 72.0555C176.72 71.9712 176.72 71.9712 176.804 71.9712H180.613C180.698 71.9712 180.698 71.9712 180.782 72.0555C180.867 72.1397 180.867 72.1397 180.867 72.3083V77.6176H180.782Z" fill="white"/>
<path d="M188.907 77.6177V77.7019C188.907 77.7019 188.823 77.7019 188.823 77.7862C188.823 77.7862 188.738 77.7862 188.653 77.7862C188.569 77.7862 188.569 77.7862 188.484 77.7862C188.399 77.7862 188.399 77.7862 188.399 77.7019V77.6177V77.0277C188.146 77.2806 187.892 77.5334 187.638 77.6177C187.384 77.7862 187.045 77.8705 186.707 77.8705C186.453 77.8705 186.199 77.8705 185.945 77.7862C185.691 77.7019 185.522 77.6177 185.353 77.4491C185.183 77.2806 185.099 77.112 185.014 76.9435C184.929 76.7749 184.929 76.5221 184.929 76.2692C184.929 75.9321 185.014 75.6793 185.099 75.5108C185.183 75.2579 185.437 75.0894 185.607 74.9208C185.86 74.7523 186.114 74.668 186.453 74.5837C186.791 74.4995 187.13 74.4995 187.469 74.4995H188.315V74.0781C188.315 73.8253 188.315 73.6567 188.23 73.4882C188.146 73.3196 188.146 73.1511 187.976 73.0668C187.892 72.9825 187.722 72.8982 187.553 72.814C187.384 72.7297 187.215 72.7297 186.961 72.7297C186.707 72.7297 186.538 72.7297 186.284 72.814C186.114 72.8982 185.945 72.8982 185.776 72.9825C185.607 73.0668 185.522 73.1511 185.437 73.1511C185.353 73.2353 185.268 73.2353 185.268 73.2353H185.183C185.183 73.2353 185.183 73.2353 185.099 73.1511V73.0668V72.9825C185.099 72.8982 185.099 72.814 185.099 72.814C185.099 72.7297 185.183 72.7297 185.183 72.6454C185.268 72.5611 185.353 72.5611 185.437 72.4769C185.522 72.3926 185.691 72.3083 185.86 72.3083C186.03 72.224 186.199 72.224 186.368 72.1398C186.538 72.1398 186.707 72.0555 186.961 72.0555C187.299 72.0555 187.638 72.1398 187.892 72.224C188.146 72.3083 188.315 72.4769 188.484 72.6454C188.653 72.814 188.738 72.9825 188.823 73.2353C188.907 73.4882 188.907 73.741 188.907 74.0781V77.6177ZM188.23 75.0051H187.215C186.961 75.0051 186.707 75.0051 186.453 75.0894C186.199 75.1737 186.03 75.2579 185.945 75.3422C185.776 75.4265 185.691 75.595 185.607 75.6793C185.522 75.8479 185.522 76.0164 185.522 76.185C185.522 76.5221 185.607 76.7749 185.776 76.9435C185.945 77.112 186.284 77.1963 186.622 77.1963C186.876 77.1963 187.13 77.112 187.384 76.9435C187.638 76.7749 187.892 76.6064 188.146 76.2692V75.0051H188.23Z" fill="white"/>
<path d="M197.794 77.6177C197.794 77.702 197.71 77.702 197.71 77.702H197.625C197.54 77.702 197.54 77.702 197.456 77.702C197.371 77.702 197.286 77.702 197.286 77.702C197.202 77.702 197.202 77.702 197.202 77.702C197.202 77.702 197.117 77.702 197.117 77.6177C197.117 77.5334 197.117 77.6177 197.117 77.5334V75.0051H194.07V77.5334V77.6177C194.07 77.6177 194.07 77.6177 193.986 77.702H193.901C193.816 77.702 193.816 77.702 193.732 77.702C193.647 77.702 193.647 77.702 193.562 77.702C193.478 77.702 193.478 77.702 193.478 77.702C193.478 77.702 193.393 77.702 193.393 77.6177C193.393 77.6177 193.393 77.6177 193.393 77.5334V72.1398V72.0555C193.393 72.0555 193.393 72.0555 193.478 71.9712C193.562 71.887 193.562 71.9712 193.562 71.9712C193.647 71.9712 193.647 71.9712 193.732 71.9712C193.816 71.9712 193.901 71.9712 193.901 71.9712C193.986 71.9712 193.986 71.9712 193.986 71.9712C193.986 71.9712 194.07 71.9712 194.07 72.0555C194.07 72.0555 194.07 72.0555 194.07 72.1398V74.4152H197.117V72.1398V72.0555C197.117 72.0555 197.117 72.0555 197.202 71.9712C197.286 71.887 197.286 71.9712 197.286 71.9712C197.371 71.9712 197.371 71.9712 197.456 71.9712C197.54 71.9712 197.54 71.9712 197.625 71.9712C197.71 71.9712 197.71 71.9712 197.71 71.9712C197.71 71.9712 197.794 71.9712 197.794 72.0555C197.794 72.1398 197.794 72.0555 197.794 72.1398V77.6177Z" fill="white"/>
<path d="M206.681 77.6177C206.681 77.7019 206.596 77.7019 206.596 77.7019H206.512C206.427 77.7019 206.427 77.7019 206.342 77.7019C206.258 77.7019 206.258 77.7019 206.173 77.7019C206.088 77.7019 206.088 77.7019 206.088 77.7019C206.088 77.7019 206.004 77.7019 206.004 77.6177C206.004 77.6177 206.004 77.6177 206.004 77.5334V74.0781C206.004 73.9095 206.004 73.741 206.004 73.6567C206.004 73.4882 206.004 73.3196 206.004 73.2353C205.919 73.4039 205.834 73.5724 205.665 73.6567C205.581 73.8253 205.411 73.9938 205.327 74.0781L202.788 77.5334C202.788 77.5334 202.788 77.6177 202.703 77.6177C202.703 77.6177 202.703 77.6176 202.618 77.7019C202.534 77.7862 202.534 77.7019 202.534 77.7019C202.534 77.7019 202.449 77.7019 202.364 77.7019C202.28 77.7019 202.28 77.7019 202.195 77.7019H202.111C202.111 77.7019 202.111 77.7019 202.026 77.6177C202.026 77.6177 202.026 77.6177 202.026 77.5334V72.1398V72.0555C202.026 72.0555 202.026 72.0555 202.111 71.9712H202.195C202.28 71.9712 202.28 71.9712 202.364 71.9712C202.534 71.9712 202.618 71.9712 202.618 71.9712C202.703 71.9712 202.703 72.0555 202.703 72.0555V75.595C202.703 75.7636 202.703 75.8479 202.703 76.0164C202.703 76.185 202.703 76.2692 202.703 76.4378C202.788 76.2692 202.872 76.185 202.957 76.0164C203.042 75.8479 203.126 75.7636 203.211 75.595L205.75 72.0555C205.75 72.0555 205.75 71.9712 205.834 71.9712C205.834 71.9712 205.919 71.9712 205.919 71.8869C205.919 71.8027 206.004 71.8869 206.004 71.8869C206.004 71.8869 206.088 71.8869 206.173 71.8869C206.258 71.8869 206.258 71.8869 206.342 71.8869H206.427C206.427 71.8869 206.427 71.8869 206.512 71.9712C206.512 71.9712 206.512 71.9712 206.512 72.0555V77.6177H206.681Z" fill="white"/>
<path d="M214.721 77.6177C214.721 77.702 214.637 77.702 214.637 77.702H214.552C214.467 77.702 214.467 77.702 214.383 77.702C214.298 77.702 214.298 77.702 214.213 77.702C214.129 77.702 214.129 77.702 214.129 77.702C214.129 77.702 214.044 77.702 214.044 77.6177C214.044 77.6177 214.044 77.6177 214.044 77.5334V75.1737H213.367C213.113 75.1737 212.859 75.1737 212.69 75.258C212.521 75.3422 212.436 75.3422 212.267 75.5108C212.182 75.5951 212.013 75.7636 211.928 75.8479C211.844 76.0164 211.759 76.185 211.674 76.4378L211.167 77.5334C211.167 77.6177 211.167 77.6177 211.082 77.6177L210.997 77.702H210.913C210.828 77.702 210.828 77.702 210.743 77.702H210.659H210.574H210.49C210.49 77.702 210.49 77.702 210.49 77.6177V77.5334C210.49 77.4491 210.574 77.3648 210.574 77.2806L210.997 76.185C211.082 75.9322 211.251 75.6793 211.42 75.5108C211.59 75.3422 211.759 75.1737 212.013 75.0894C211.59 75.0051 211.336 74.8366 211.082 74.668C210.828 74.4152 210.743 74.1624 210.743 73.741C210.743 73.4882 210.828 73.2354 210.913 73.0668C210.997 72.8982 211.167 72.7297 211.336 72.5611C211.505 72.3926 211.759 72.3083 212.098 72.224C212.351 72.1398 212.69 72.1398 213.113 72.1398C213.198 72.1398 213.282 72.1398 213.367 72.1398C213.452 72.1398 213.621 72.1398 213.706 72.1398C213.79 72.1398 213.96 72.1398 214.044 72.1398C214.129 72.1398 214.213 72.1398 214.298 72.1398C214.383 72.1398 214.467 72.224 214.552 72.224C214.637 72.3083 214.637 72.3926 214.637 72.4769V77.6177H214.721ZM213.96 72.6454C213.79 72.6454 213.621 72.6454 213.452 72.6454C213.282 72.6454 213.113 72.6454 213.029 72.6454C212.69 72.6454 212.436 72.6454 212.267 72.7297C212.098 72.814 211.928 72.814 211.759 72.9825C211.674 73.0668 211.59 73.1511 211.505 73.3196C211.42 73.4039 211.42 73.5725 211.42 73.741C211.42 73.9096 211.42 73.9938 211.505 74.1624C211.59 74.2467 211.674 74.4152 211.759 74.4995C211.844 74.5838 212.013 74.668 212.182 74.668C212.351 74.7523 212.605 74.7523 212.944 74.7523H213.875V72.6454H213.96Z" fill="white"/>
<path d="M54.0824 66.1562L75.1567 24.3556L58.0602 27.5581L40.0328 74.4995C42.1487 68.9373 43.7568 63.038 45.5341 57.3073C47.3961 51.3237 49.2581 45.3402 51.1201 39.3566C52.2204 35.7328 53.3206 32.1932 54.4209 28.5694C43.249 28.3165 31.9924 28.148 20.8204 27.8952C25.56 43.9075 30.2997 60.0041 34.9546 76.0164C29.1148 60.0041 23.2749 44.076 17.435 28.0637C17.1811 27.4738 16.9272 26.7996 16.504 26.3782C16.0808 26.0411 15.6576 26.0411 15.1498 25.9568C10.0717 25.5354 5.07816 25.0298 0 24.5241C7.02478 38.5139 14.1342 52.5036 21.159 66.4933C19.297 66.4933 17.435 66.5776 15.6576 66.5776C14.9806 66.5776 14.1342 66.7461 13.8803 67.5046C16.7579 67.5046 19.6355 67.5046 22.5132 67.4203C15.4884 53.5149 8.46359 39.5252 1.43881 25.6197C5.83988 26.0411 10.1563 26.4625 14.5574 26.9681C15.0652 27.0524 15.6576 27.0524 16.0808 27.4738C16.504 27.8109 16.7579 28.4008 16.9272 28.9907C23.1902 45.9301 29.4533 62.7852 35.6317 79.7245C35.8856 80.3145 36.2242 81.073 36.732 81.073C31.7385 63.7122 26.745 46.2672 21.7514 28.9065L52.0511 29.4964C43.0797 31.6876 33.939 32.1932 24.7983 31.0976C28.5223 31.519 32.3309 31.9404 36.0549 32.3618C38.0015 32.6146 39.9482 32.6989 41.8948 32.8674C43.5875 33.036 45.788 32.9517 47.3961 33.7944C47.65 33.8787 47.8193 34.1315 47.8193 34.3844C47.9039 35.2271 39.525 73.0668 39.1018 78.1233C39.1018 78.3761 39.1018 78.8818 39.0172 79.1346L58.5681 28.3165L73.6332 25.5354L52.7282 67.0832C52.4743 67.0832 53.236 67.0832 54.167 67.0832H219.038L222 65.8191L54.0824 66.1562Z" fill="white"/>
<path opacity="0.92" d="M27.8452 38.5981L31.3999 34.0472L40.5406 34.2158L43.1643 38.1767L37.4091 70.0329L27.8452 38.5981Z" fill="#2EC0FF"/>
<path opacity="0.92" d="M60.684 35.3114L57.4678 38.3453L51.0355 58.0658L60.7686 40.6208L60.684 35.3114Z" fill="#2EC0FF"/>
</svg>
