<svg width="34" height="39" viewBox="0 0 34 39" fill="none" xmlns="http://www.w3.org/2000/svg">
<path d="M33.6847 38.4945C22.539 38.4945 11.3389 38.4945 0.0844627 38.4945C-0.187384 33.4809 0.0300933 28.5763 3.29225 24.3801C4.8146 22.3638 6.77189 21.0014 9.32725 20.5654C9.81658 20.4564 10.3603 20.4564 10.904 20.5109C11.1214 20.5109 11.3389 20.8379 11.4477 21.0559C12.4263 23.8351 13.3506 26.6689 14.3292 29.4482C14.6555 30.3747 14.6555 30.3747 15.6885 30.3202C15.6885 30.1567 15.7428 29.9932 15.7428 29.8297C15.7972 27.7044 15.7972 25.579 15.9059 23.4537C15.9603 22.5817 15.7972 21.7643 15.2535 21.1103C15.1448 20.9469 15.036 20.7834 14.8729 20.4564C16.2865 21.0559 17.5914 21.1648 18.9506 20.5109C18.9506 20.6199 18.9506 20.6744 18.9506 20.7289C17.972 21.8188 18.0807 23.1267 18.0807 24.4346C18.1351 26.3965 18.0807 28.3583 18.0807 30.2657C19.2225 30.5926 19.2768 30.5381 19.5487 29.6662C20.5273 26.7779 21.506 23.9441 22.4303 21.0559C22.539 20.6744 22.7565 20.5654 23.1914 20.5654C25.9099 20.5654 28.0847 21.7098 29.8789 23.6172C32.2168 26.1785 33.4129 29.2302 33.7391 32.609C33.7935 34.5163 33.6847 36.4782 33.6847 38.4945Z" fill="#0E7BCB"/>
<path d="M23.572 12.5C22.7565 14.0804 22.0497 15.6063 21.1254 17.0232C20.3643 18.2766 19.2225 19.094 17.7002 19.4755C16.1778 19.8569 14.8186 19.421 13.6225 18.4946C11.937 17.1866 11.0671 15.3338 10.3603 13.3719C10.2516 13.0995 10.1972 12.827 10.0884 12.5C9.43601 12.718 9.2729 12.282 9.16416 11.7371C9.05543 11.2466 8.94669 10.7561 8.83795 10.2657C8.72921 9.66621 8.72921 9.12125 9.2729 8.73978C9.38164 8.63079 9.43601 8.35831 9.43601 8.14033C9.59912 6.94142 9.54475 5.68801 9.87097 4.4891C10.6321 1.76431 12.8613 0.183924 15.9603 0.020436C16.8846 -0.0340599 17.8089 0.0204359 18.6788 0.183924C21.8322 0.783379 23.6808 2.96322 23.9526 6.28747C24.007 6.77793 24.007 7.26839 24.007 7.81335C24.007 8.24932 23.9526 8.63079 24.3876 9.01226C24.6594 9.23025 24.6594 9.8297 24.6051 10.2112C24.5507 10.7561 24.3876 11.3011 24.2245 11.9005C24.1701 12.3365 23.8983 12.609 23.572 12.5Z" fill="#0E7BCB"/>
</svg>
