<svg width="50" height="50" viewBox="0 0 50 50" fill="none" xmlns="http://www.w3.org/2000/svg">
<path d="M21.1442 29.8507L21.393 30.0995C21.6418 30.3483 22.1393 30.3483 22.388 30.0995L49.2537 3.48259C49.7512 2.98507 50 2.48756 50 1.99005C50 1.49254 49.7512 0.995025 49.5024 0.497512C49.0049 0.248756 48.5074 0 48.0099 0C47.5124 0 47.0149 0.248756 46.5174 0.497512L19.9005 27.3632C19.6517 27.6119 19.6517 28.1094 19.9005 28.3582L20.1492 28.607L18.9054 29.8507C18.6567 30.0995 16.9154 29.1045 15.9204 28.607C13.4328 27.3632 10.199 25.3731 6.96513 26.1194C6.71638 26.1194 6.71638 26.1194 6.46762 26.1194C6.46762 26.1194 6.46762 26.1194 6.21887 26.1194C4.97508 26.6169 3.98006 27.1144 3.23379 28.1095L-3.97861e-05 31.3433C-0.746308 32.0896 0.248716 33.0846 0.994985 32.3383L3.98006 29.8507L5.4726 31.3433L2.73628 34.0796C1.99001 34.8259 2.98503 35.8209 3.7313 35.0746L6.46762 32.3383L7.96016 33.8308L5.22384 36.5672C4.47757 37.3134 5.4726 38.3085 6.21887 37.5622L8.95518 34.8259L10.4477 36.3184L7.46265 38.806C6.71638 39.5522 7.7114 40.5473 8.45767 39.801L11.194 37.3134L12.6865 38.806L9.95021 41.2935C9.70145 41.5423 9.70145 42.0398 9.95021 42.2886C10.199 42.5373 10.6965 42.5373 10.9452 42.2886L13.6816 39.801L15.1741 41.2935L12.4378 43.7811C11.6915 44.5274 12.6865 45.5224 13.4328 44.7761L16.1691 42.0398L17.6617 43.5323L14.9253 46.2687C14.1791 47.0149 15.1741 48.0099 15.9204 47.2637L18.6567 44.5274L20.1492 46.0199L17.4129 48.7562C17.1641 49.005 17.1641 49.5025 17.4129 49.7512C17.6617 50 18.1592 50 18.4079 49.7512L21.6418 46.5174C22.6368 45.5224 23.383 44.2786 23.6318 43.0348V42.7861C24.3781 39.5522 22.388 36.3184 21.1442 33.8308C20.6467 32.8358 19.6517 31.3433 19.9005 30.8458L21.1442 29.8507ZM47.5124 1.74129C47.7612 1.49254 48.0099 1.49254 48.2587 1.74129C48.5074 1.99005 48.5074 2.23881 48.2587 2.48756L22.1393 28.607L21.393 27.8607L47.5124 1.74129ZM7.21389 27.8607L22.388 42.7861C22.388 42.7861 22.388 42.7861 22.388 43.0348C22.1393 43.7811 21.8905 44.5274 21.393 45.0249L19.4029 43.0348L16.9154 40.5473L9.70145 33.3333L7.21389 30.8458L4.97508 28.8557C5.72135 28.3582 6.46762 28.1094 7.21389 27.8607ZM22.388 40.796L8.95518 27.3632C11.194 27.3632 13.4328 28.8557 15.4228 29.8507C16.6666 30.597 17.6617 31.0945 18.6567 31.3433C18.6567 32.3383 19.4029 33.3333 19.9005 34.5771C21.1442 36.3184 22.388 38.5572 22.388 40.796Z" fill="#0E7BCB"/>
</svg>
