<svg width="33" height="39" viewBox="0 0 33 39" fill="none" xmlns="http://www.w3.org/2000/svg">
<path d="M16.307 11.8256C12.2837 11.8256 8.96716 15.0954 8.96716 19.1826C8.96716 23.2153 12.2293 26.5395 16.307 26.5395C20.3304 26.5395 23.6469 23.2698 23.6469 19.1826C23.6469 15.0954 20.3304 11.8256 16.307 11.8256ZM20.6566 17.7657L15.4371 22.9973C15.2196 23.2153 14.9478 23.3242 14.6216 23.3242C14.3497 23.3242 14.0235 23.2153 13.806 22.9973L11.7944 20.9809C11.3594 20.545 11.3594 19.8365 11.7944 19.4005C12.2293 18.9646 12.9361 18.9646 13.3711 19.4005L14.5672 20.5995L19.0255 16.1308C19.4604 15.6948 20.1673 15.6948 20.6022 16.1308C21.0915 16.6212 21.0915 17.3297 20.6566 17.7657Z" fill="#0E7BCB"/>
<path d="M32.6178 10.3542C32.6178 9.97275 32.5634 9.53678 32.5634 9.15531C32.5091 7.02997 30.8236 5.2861 28.7576 5.17711C24.3537 4.90463 20.9284 3.48774 17.9924 0.653951C17.0138 -0.217984 15.6002 -0.217984 14.6759 0.653951C11.74 3.48774 8.36907 4.95913 3.91079 5.17711C1.79038 5.2861 0.104935 7.02997 0.104935 9.15531C0.104935 9.59128 0.104931 9.97275 0.050562 10.3542V10.4087C-0.0581766 14.9319 -0.166912 20.545 1.73601 25.6131C2.76903 28.3924 4.34574 30.8447 6.35741 32.861C8.69529 35.1499 11.74 36.9482 15.4371 38.2561C15.5458 38.3106 15.7089 38.3106 15.8177 38.3651C15.9808 38.4196 16.1982 38.4196 16.3614 38.4196C16.5245 38.4196 16.7419 38.4196 16.905 38.3651C17.0138 38.3651 17.1769 38.3106 17.2856 38.2561C20.9828 36.9482 24.0274 35.1499 26.3653 32.861C28.4313 30.8447 29.9537 28.4469 30.9867 25.6131C32.8353 20.4905 32.7265 14.8774 32.6178 10.3542ZM16.307 28.7193C11.0332 28.7193 6.738 24.4142 6.738 19.1281C6.738 13.842 11.0332 9.53679 16.307 9.53679C21.5808 9.53679 25.876 13.842 25.876 19.1281C25.876 24.4142 21.5808 28.7193 16.307 28.7193Z" fill="#0E7BCB"/>
</svg>
