<svg width="38" height="38" viewBox="0 0 38 38" fill="none" xmlns="http://www.w3.org/2000/svg">
<path d="M36.2075 0H1.9717C0.896226 0 0 0.896226 0 1.9717V36.2075C0 37.283 0.896226 38.1792 1.9717 38.1792H36.2075C37.283 38.1792 38.1792 37.283 38.1792 36.2075V1.9717C38 0.896226 37.1038 0 36.2075 0ZM36.7453 36.2075C36.7453 36.566 36.3868 36.9245 36.0283 36.9245H1.9717C1.61321 36.9245 1.25472 36.566 1.25472 36.2075V1.9717C1.25472 1.61321 1.61321 1.25472 1.9717 1.25472H36.2075C36.566 1.25472 36.9245 1.61321 36.9245 1.9717V36.2075H36.7453Z" fill="#0E7BCB"/>
<path d="M34.9529 2.5094H3.22644C3.0472 2.5094 2.86795 2.5094 2.68871 2.68864C2.68871 2.86789 2.50946 3.04714 2.50946 3.22638V34.9528C2.50946 35.132 2.50946 35.3113 2.68871 35.4905C2.86795 35.6698 3.0472 35.6698 3.22644 35.6698H34.9529C35.1321 35.6698 35.3113 35.6698 35.4906 35.4905C35.6698 35.3113 35.6698 35.132 35.6698 34.9528V3.22638C35.6698 3.04714 35.6698 2.86789 35.4906 2.68864C35.1321 2.68864 34.9529 2.5094 34.9529 2.5094ZM26.3491 3.76412L28.6793 6.4528C29.3963 7.34902 30.1132 8.42449 30.4717 9.67921L30.8302 10.9339C31.0095 11.2924 30.8302 11.6509 30.8302 11.8302L29.934 13.8019C29.7547 14.3396 29.217 14.5188 28.6793 14.5188L22.9434 13.9811C22.9434 13.9811 22.9434 13.9811 22.7642 13.9811C22.5849 13.8019 22.4057 13.4434 22.0472 13.4434L20.0755 12.1886C20.434 11.8302 20.7925 11.4717 20.9717 10.9339L21.5095 9.49997C21.868 8.78299 21.6887 7.88676 21.3302 7.16978L21.151 6.99053C20.9717 6.81129 20.9717 6.81129 20.7925 6.63204L23.4812 3.94336H26.3491V3.76412ZM21.5095 22.4056L20.434 21.5094C20.434 21.3302 20.6132 21.3302 20.6132 21.1509L22.4057 18.4622C22.5849 18.1037 22.7642 17.9245 22.7642 17.566L23.1227 15.9528C23.1227 15.7736 23.1227 15.4151 23.1227 15.2358L28.3208 15.7736H28.5C28.6793 15.7736 28.8585 15.7736 29.0378 15.7736L29.5755 19.3585C29.5755 19.7169 29.7547 20.0754 29.934 20.4339L30.4717 21.3302C30.4717 21.5094 30.651 21.5094 30.651 21.6886L28.8585 25.4528C28.6793 25.8113 28.1415 26.1698 27.783 26.1698H26.8868C26.3491 26.1698 25.8113 25.9905 25.4529 25.8113L22.2264 24.3773C22.2264 23.4811 21.868 22.9434 21.5095 22.4056ZM12.7264 19.3585L11.4717 17.7453C11.8302 17.2075 12.0095 16.6698 12.0095 16.132V14.8773H12.1887C12.368 14.8773 12.7264 14.8773 12.9057 14.6981L15.9529 13.8019H16.1321L18.8208 12.7264L21.3302 14.3396C21.6887 14.6981 22.0472 15.0566 21.868 15.5943L21.5095 17.2075C21.5095 17.3868 21.3302 17.566 21.3302 17.7453L19.5378 20.4339C19.3585 20.7924 19 20.9717 18.6415 20.9717L13.2642 21.5094V20.9717C13.2642 20.4339 13.0849 19.8962 12.7264 19.3585ZM13.2642 22.7641L18.8208 22.2264C19 22.2264 19.1793 22.2264 19.3585 22.0471L20.6132 23.3019C20.7925 23.4811 20.9717 23.8396 20.9717 24.1981V25.4528C20.9717 25.632 20.9717 25.8113 20.7925 25.9905L19.5378 28.3207C19.3585 28.6792 18.8208 29.0377 18.4623 29.0377H15.0566C14.8774 29.0377 14.6981 29.0377 14.5189 28.8585L12.0095 27.783C11.8302 27.2453 11.651 26.8868 11.2925 26.5283L10.3963 25.632L12.368 24.1981C12.9057 24.1981 13.2642 23.4811 13.2642 22.7641ZM13.9812 5.55657V3.76412H22.0472L20.0755 5.73582C19.8963 5.73582 19.717 5.55657 19.3585 5.55657H13.9812C13.9812 5.73581 13.9812 5.55657 13.9812 5.55657ZM13.4434 6.99053H19.1793C19.5378 6.99053 20.0755 7.16978 20.2547 7.52827L20.434 7.70751C20.6132 8.066 20.7925 8.42449 20.6132 8.96223L20.0755 10.3962C19.8963 10.7547 19.717 10.9339 19.3585 11.1132L15.7736 12.7264C15.7736 12.7264 15.7736 12.7264 15.5944 12.7264L12.5472 13.6226C12.0095 13.8019 11.4717 13.6226 11.1132 13.0849L10.3963 12.1886C10.5755 11.6509 10.7547 11.2924 10.7547 10.7547V10.2169C10.7547 9.85846 10.934 9.49997 11.1132 9.32072L13.0849 7.34902C13.2642 7.16978 13.4434 7.16978 13.4434 6.99053ZM3.76418 3.76412H12.7264V5.55657C12.7264 5.91506 12.5472 6.27355 12.368 6.4528L10.217 8.42449C9.85852 8.96223 9.50003 9.67921 9.50003 10.2169V10.7547C9.50003 11.4717 8.96229 12.0094 8.24531 12.0094H6.81135C6.6321 12.0094 6.27361 12.0094 6.09437 11.8302L3.76418 10.3962V3.76412ZM3.76418 11.8302L5.55663 12.9056C5.91512 13.0849 6.45286 13.2641 6.81135 13.2641H8.24531C8.6038 13.2641 9.14154 13.0849 9.50003 12.9056L10.217 13.6226C10.217 13.9811 10.5755 14.3396 10.7547 14.5188C10.7547 14.5188 10.7547 14.5188 10.7547 14.6981V16.132C10.7547 16.4905 10.5755 16.849 10.217 17.2075L8.24531 18.8207C8.06606 19 7.70757 19.1792 7.52833 19.1792H3.76418V11.8302ZM3.76418 20.2547H7.52833C8.06606 20.2547 8.6038 20.0754 9.14154 19.7169L10.5755 18.6415L11.8302 20.2547C12.0095 20.4339 12.0095 20.7924 12.0095 20.9717V22.5849C12.0095 22.9434 11.8302 23.3019 11.4717 23.6603L6.45286 27.2453C6.27361 27.4245 5.91512 27.4245 5.73588 27.4245H3.76418V20.2547ZM10.217 34.0566L10.3963 34.2358H3.76418V28.5H5.73588C6.27361 28.5 6.81135 28.3207 7.16984 27.9622L9.14154 26.5283L10.217 27.6037C10.7547 28.1415 10.7547 28.8585 10.217 29.3962C9.67927 29.9339 9.50003 30.4717 9.50003 31.1886V32.2641C9.50003 32.8019 9.85852 33.5188 10.217 34.0566ZM18.6415 34.2358H12.368L11.2925 33.1603C10.934 32.8019 10.7547 32.4434 10.7547 32.2641V31.3679C10.7547 31.0094 10.934 30.6509 11.1132 30.4717C11.4717 30.1132 11.651 29.9339 11.651 29.5754L13.8019 30.4717C14.1604 30.2924 14.6981 30.4717 15.0566 30.4717H18.4623C18.6415 30.4717 19 30.4717 19.1793 30.2924L20.0755 32.2641L18.6415 34.2358ZM20.2547 34.2358L20.9717 33.1603L22.2264 34.2358H20.2547ZM24.3774 34.2358L21.6887 32.0849C21.5095 31.9056 21.5095 31.9056 21.3302 31.7264L20.2547 29.7547C20.434 29.5754 20.6132 29.3962 20.7925 29.0377L22.0472 26.7075C22.2264 26.349 22.2264 25.9905 22.2264 25.632L24.9151 26.8868C25.6321 27.2453 26.1698 27.2453 26.8868 27.2453H27.9623C28.1415 27.2453 28.5 27.2453 28.6793 27.066L31.1887 29.5754L31.368 29.7547L28.6793 34.0566H24.3774V34.2358ZM34.2359 34.2358H30.2925L32.6227 30.4717C32.8019 30.4717 32.9812 30.4717 32.9812 30.4717H34.0566V34.2358H34.2359ZM34.2359 29.2169H33.1604C32.8019 29.2169 32.4434 29.0377 32.2642 28.8585L29.934 26.5283C30.1132 26.349 30.2925 26.1698 30.2925 25.9905L32.0849 22.4056C32.2642 22.4056 32.2642 22.4056 32.4434 22.4056L34.4151 22.7641L34.2359 29.2169ZM34.2359 21.3302L32.6227 20.9717C32.2642 20.9717 32.0849 20.7924 31.9057 20.4339L31.1887 19.7169C31.0095 19.5377 31.0095 19.3585 31.0095 19.1792L30.4717 15.0566C30.651 14.8773 30.8302 14.5188 31.0095 14.3396L31.9057 12.3679C31.9057 12.1886 32.0849 12.1886 32.0849 12.0094H34.2359V21.3302ZM34.2359 10.7547H32.0849C32.0849 10.5754 32.0849 10.5754 32.0849 10.3962L31.7264 9.14148C31.368 7.88676 30.651 6.63204 29.7547 5.55657L28.1415 3.58487H34.4151V10.7547H34.2359Z" fill="#0E7BCB"/>
</svg>
