<svg width="18" height="18" viewBox="0 0 18 18" fill="none" xmlns="http://www.w3.org/2000/svg">
<path d="M17.5294 13.2072L15.0105 10.6935C14.1105 9.79543 12.5822 10.1568 12.2254 11.3206C11.9538 12.1284 11.0592 12.5748 10.2497 12.3994C8.44976 11.953 6.02676 9.62006 5.57411 7.73351C5.30252 6.92575 5.8457 6.02765 6.65514 5.76194C7.82138 5.40057 8.1835 3.88071 7.28352 2.9826L4.76466 0.474294C4.04575 -0.158098 2.96472 -0.158098 2.33633 0.474294L0.626915 2.18016C-1.0825 3.97636 0.807975 8.72727 5.03093 12.9414C9.25388 17.1556 14.02 19.1325 15.8146 17.3363L17.5241 15.6304C18.1578 14.913 18.1578 13.8342 17.5294 13.2072Z" fill="white"/>
</svg>
