<svg width="29" height="40" viewBox="0 0 29 40" fill="none" xmlns="http://www.w3.org/2000/svg">
<path d="M20.7147 28.0109L22.5633 25.0681L25.8798 23.9237L26.2604 20.436L28.7614 17.9837L27.5653 14.7139L28.7614 11.4441L26.2604 8.99183L25.8798 5.50409L22.5633 4.35967L20.7147 1.41689L17.2351 1.85286L14.3535 0L11.4176 1.85286L7.99229 1.41689L6.14374 4.35967L2.82721 5.50409L2.44662 8.99183L0 11.4441L1.19612 14.7139L0 17.9837L2.50099 20.436L2.88157 23.9237L6.1981 25.0681L8.04666 28.0109L11.4719 27.5749L14.4079 29.4278L17.3438 27.5749L20.7147 28.0109ZM4.24081 14.7139C4.24081 9.15531 8.75346 4.63215 14.2991 4.63215C19.8448 4.63215 24.3575 9.15531 24.3575 14.7139C24.3575 20.2725 19.8448 24.7956 14.2991 24.7956C8.75346 24.7956 4.24081 20.327 4.24081 14.7139Z" fill="#0E7BCB"/>
<path d="M14.3535 6.97548C10.0583 6.97548 6.63306 10.4632 6.63306 14.7139C6.63306 19.0191 10.1127 22.4523 14.3535 22.4523C18.5943 22.4523 22.074 18.9646 22.074 14.7139C22.074 10.4632 18.5943 6.97548 14.3535 6.97548Z" fill="#0E7BCB"/>
<path d="M10.8739 30.0273L6.74183 30.5177L4.56706 26.9755L3.80589 26.703L0.652466 36.6758L6.36125 36.4033L10.8195 40L13.4293 31.7711L10.8739 30.0273Z" fill="#0E7BCB"/>
<path d="M24.0856 26.9755L21.9109 30.5177L17.8332 30.0272L15.1691 31.7166L17.7788 39.9455L22.2371 36.3488L27.9459 36.6757L24.8468 26.7575L24.0856 26.9755Z" fill="#0E7BCB"/>
</svg>
