<svg width="33" height="45" viewBox="0 0 33 45" fill="none" xmlns="http://www.w3.org/2000/svg">
<path d="M27.3659 15.8945C27.1646 15.6881 26.7622 15.4817 26.561 15.4817V13.211C27.1646 13.211 27.5671 12.7982 27.5671 12.1789V6.6055C27.5671 2.88991 24.75 0 21.128 0H11.0671C10.061 0 9.05487 0.825688 9.05487 1.8578H7.2439C6.2378 1.8578 5.43292 2.68349 5.43292 3.7156V5.57339C5.43292 6.6055 6.2378 7.43119 7.2439 7.43119H9.05487C9.05487 8.4633 9.85975 9.28899 10.8658 9.28899H12.0732L9.45731 13.4174C9.05487 13.8303 9.05487 14.2431 9.25609 14.4495C9.45731 14.8624 9.65853 15.0688 10.061 15.0688H11.8719C12.0732 15.0688 12.2744 15.0688 12.4756 14.8624L18.311 10.3211V12.1789C18.311 12.7982 18.7134 13.211 19.3171 13.211V15.4817C15.8963 17.7523 13.0793 19.8165 13.0793 34.6789V41.2844C13.0793 43.3486 14.689 45 16.7012 45H29.5793C31.5915 45 33.2012 43.3486 33.2012 41.2844V34.6789C33 20.2294 30.7866 18.1651 27.3659 15.8945ZM9.05487 5.57339H7.2439V3.7156H9.05487V5.57339ZM11.8719 12.7982L14.0854 9.28899H16.2988L11.8719 12.7982ZM11.0671 7.43119V1.8578H21.128C23.7439 1.8578 25.7561 3.92202 25.7561 6.6055V11.3532H20.1219V8.4633C20.1219 7.84404 19.7195 7.43119 19.1159 7.43119H11.0671ZM20.1219 17.133L20.5244 16.7202C20.7256 16.5138 20.9268 16.3073 20.9268 15.8945V13.211H24.5488V16.1009C24.5488 16.3073 24.75 16.7202 24.9512 16.9266C25.3537 17.3394 25.7561 17.5459 26.1585 17.7523C28.372 18.9908 30.1829 20.2294 30.5854 28.2798H14.4878C15.4939 20.2294 17.7073 18.7844 20.1219 17.133ZM31.189 41.2844C31.189 42.3165 30.3841 43.1422 29.378 43.1422H16.5C15.4939 43.1422 14.689 42.3165 14.689 41.2844V39.4266H31.189V41.2844ZM31.189 37.5688H14.689V34.6789C14.689 33.0275 14.689 31.3761 14.8902 29.9312H31.189C31.189 31.3761 31.189 32.8211 31.189 34.6789V37.5688Z" fill="#0E7BCB"/>
<path d="M3.62195 4.74744C3.62195 4.12818 3.21951 3.71533 2.61585 3.71533H1.0061C0.402439 3.71533 0 4.12818 0 4.74744C0 5.36671 0.402439 5.77955 1.0061 5.77955H2.81707C3.21951 5.57313 3.62195 5.16029 3.62195 4.74744Z" fill="#0E7BCB"/>
<path d="M1.4085 1.85769L3.21948 2.8898C3.4207 2.8898 3.4207 2.8898 3.62192 2.8898C4.02436 2.8898 4.22558 2.68338 4.4268 2.27054C4.62801 1.85769 4.4268 1.23843 4.02436 1.032L2.21338 -0.000106387C1.81094 -0.206528 1.20728 -0.000106402 1.00606 0.61916C0.804844 1.032 1.00606 1.44485 1.4085 1.85769Z" fill="#0E7BCB"/>
<path d="M3.21948 6.60539L1.4085 7.6375C1.00606 7.84393 0.804844 8.46319 1.00606 8.87604C1.20728 9.28888 1.4085 9.4953 1.81094 9.4953C2.01216 9.4953 2.01216 9.4953 2.21338 9.4953L4.02436 8.25677C4.4268 8.05035 4.62801 7.43108 4.4268 7.01824C4.22558 6.60539 3.62192 6.39897 3.21948 6.60539Z" fill="#0E7BCB"/>
</svg>
