<svg width="23" height="45" viewBox="0 0 23 45" fill="none" xmlns="http://www.w3.org/2000/svg">
<path d="M13.8642 7.30245C15.0603 9.3733 16.637 11.1717 18.4856 12.6431L19.1924 11.9346C17.8331 9.97275 17.1807 7.68392 16.637 5.23161L18.0506 4.19619V0H8.04667C7.33987 0 6.68744 0.27248 6.14374 0.762943L1.84856 4.74114C1.57671 5.01362 1.41361 5.39509 1.41361 5.77657V6.97548C1.41361 7.73842 2.01167 8.33787 2.77284 8.33787H5.54567V11.1172C4.29518 13.6785 2.60973 17.4387 2.06604 18.6921C0.326218 22.6703 0 24.5777 0 28.7738C0 31.7166 0.380586 34.4414 1.08739 36.8937C1.4136 38.1471 2.50099 38.9646 3.75148 38.9646H14.6797C15.9302 38.9646 17.0176 38.0381 17.3438 36.7847C17.7788 35.1499 17.9963 33.297 17.9963 31.3896C17.9963 28.2834 17.6157 26.5395 16.0933 23.7057C14.9516 21.8529 13.9186 20.6539 14.2448 17.3297C14.5166 15.0409 13.538 12.2071 12.3962 11.1717V8.39237L13.8642 7.30245ZM13.6467 25.0136H2.88158C3.09906 23.3787 3.53401 21.9619 4.51266 19.782C4.89325 18.9101 6.08937 16.2398 7.23113 13.8965H10.9826C11.3088 14.6594 11.635 15.8583 11.5263 16.9482C11.037 21.3079 12.4506 22.8883 13.6467 25.0136Z" fill="#0E7BCB"/>
<path d="M21.4215 0H19.3555V4.19619H21.4215C21.8021 4.19619 22.1283 3.86921 22.1283 3.48774V0.708447C22.1283 0.326975 21.8021 0 21.4215 0Z" fill="#1D46B0"/>
<path d="M6.90294 43.6388C6.614 43.6388 6.36117 43.386 6.36117 43.0971C6.36117 41.1106 9.1061 36.0903 13.2596 32.9842L13.4041 32.8758C13.5485 32.7675 13.7291 32.6591 13.9097 32.5508C14.0903 32.4424 14.2348 32.3341 14.4153 32.2257L14.4876 32.1896C14.5598 32.1535 14.6682 32.0813 14.7404 32.0451C15.1016 31.8284 15.3905 31.684 15.6795 31.5395C15.7517 31.5034 15.7878 31.395 15.7517 31.3228C15.7156 31.2506 15.6795 31.2144 15.6072 31.2144C15.5711 31.2144 15.5711 31.2144 15.535 31.2144C11.3454 33.2731 8.78104 37.1016 7.8781 38.6907C7.80587 38.8352 7.62528 38.9436 7.40858 38.9436C7.19187 38.9436 7.0474 38.8352 6.93905 38.6546C6.54176 37.8962 6.36117 37.0655 6.36117 36.1625C6.36117 33.7065 7.84199 28 21.4944 28C21.7111 28 21.8916 28.1445 22 28.3251C22.0361 28.5418 22 28.7585 21.8555 28.9029C20.6637 30.0948 19.1828 31.8646 18.5327 34.8984C18.0271 37.2461 17.0519 41.5801 12.465 41.5801C10.8758 41.5801 9.46727 41.1467 8.41987 40.3521C7.69752 41.7607 7.4447 42.6998 7.4447 43.1332C7.40858 43.4221 7.19187 43.6388 6.90294 43.6388Z" fill="#0DBF37"/>
<path d="M21.3138 28.3612C21.4582 28.3612 21.5666 28.4334 21.6388 28.5779C21.6749 28.7223 21.6749 28.8668 21.5666 28.9391C20.3386 30.167 18.8578 31.9729 18.1716 35.0429C17.6659 37.3183 16.7269 41.5801 12.2844 41.5801C10.623 41.5801 9.21445 41.1106 8.16704 40.2799C7.4447 41.6524 7.0474 42.772 7.0474 43.3138C7.0474 43.4944 6.90293 43.6749 6.68623 43.6749C6.50564 43.6749 6.32506 43.5305 6.32506 43.3138C6.32506 41.544 8.92551 36.5237 13.1512 33.3815C13.1874 33.3454 13.2596 33.3093 13.2957 33.2731C13.4402 33.1648 13.6208 33.0564 13.7652 32.9481C13.9458 32.8397 14.0903 32.7314 14.2709 32.623C14.3792 32.5508 14.4876 32.4786 14.5959 32.4063C14.8849 32.2257 15.2099 32.0451 15.535 31.9007C15.7156 31.8284 15.7878 31.6117 15.6795 31.4312C15.6072 31.3228 15.4989 31.2506 15.3544 31.2506C15.3183 31.2506 15.246 31.2506 15.2099 31.2867C11.0203 33.3093 8.45598 37.2099 7.55305 38.763C7.48081 38.8713 7.37246 38.9436 7.22799 38.9436C7.08352 38.9436 6.97517 38.8713 6.93905 38.763C6.57788 38.0406 6.36117 37.2099 6.36117 36.3792C6.36117 33.9594 7.80587 28.3612 21.3138 28.3612ZM21.3138 28C7.48081 28 6 33.851 6 36.3431C6 37.2822 6.2167 38.1129 6.614 38.9074C6.72235 39.1242 6.97517 39.2686 7.22799 39.3047C7.33634 39.3047 7.40858 39.2686 7.51693 39.2325C6.54176 40.8939 6 42.4108 6 43.3138C6 43.7111 6.32506 44.0361 6.72235 44.0361C7.11964 44.0361 7.4447 43.7111 7.4447 43.3138C7.4447 42.9165 7.69752 42.0135 8.31151 40.8217C9.39503 41.544 10.7314 41.9413 12.2844 41.9413C17.0519 41.9413 18.0632 37.3544 18.5327 35.1151C19.1828 32.1535 20.6275 30.3837 21.8194 29.1919C22.0361 28.9752 22.0722 28.6862 21.9639 28.4334C21.8555 28.1806 21.6027 28 21.3138 28Z" fill="white"/>
</svg>
