<svg width="50" height="50" viewBox="0 0 50 50" fill="none" xmlns="http://www.w3.org/2000/svg">
<path d="M10.7317 42.4391L9.02441 42.683L9.75612 49.2684C9.75612 49.7562 10.2439 50.0001 10.4878 50.0001H22.1951V48.2927H11.4634L10.7317 42.4391Z" fill="#0E7BCB"/>
<path d="M33.6585 5.85376L36.8293 7.31718L37.561 10.0001L36.0976 12.9269L34.1463 15.8538L35.6097 16.5855L36.8293 14.1464L40.4878 15.366V16.3416H42.1951V15.1221L42.9268 11.9513L43.4146 11.2196L45.8536 12.683C46.3415 12.9269 47.0732 12.9269 47.561 12.683C48.0488 12.4391 48.2927 11.9513 48.2927 11.2196V10.7318C48.2927 8.29279 46.8293 6.09767 44.6341 5.12206L41.9512 3.90254L38.5366 2.43913L35.1219 0.731812C34.878 0.731812 34.6341 0.731812 34.3902 0.731812C34.1463 0.731812 33.9024 0.975714 33.9024 1.21962L33.4146 4.87815C33.1707 5.12206 33.4146 5.60986 33.6585 5.85376ZM37.8049 12.9269L38.7805 11.2196L41.4634 12.1952L40.9756 13.9025L37.8049 12.9269ZM46.8293 10.7318V11.2196L45.6097 10.4879C45.8537 10.244 45.8536 10.0001 45.8536 9.7562C45.8536 9.0245 45.6097 8.29279 45.3658 7.56108C46.3415 8.04888 46.8293 9.2684 46.8293 10.7318ZM41.4634 5.36596C43.1707 6.09767 44.1463 7.56108 44.1463 9.5123L43.6585 9.2684C43.4146 9.2684 43.1707 9.02449 42.9268 9.2684C42.6829 9.2684 42.439 9.5123 42.439 9.7562L41.9512 10.7318L39.0244 9.2684L38.2927 6.58547L38.7805 4.39035L41.4634 5.36596ZM35.6097 2.92693L37.3171 3.90254L36.8293 5.60986L35.1219 4.63425L35.6097 2.92693Z" fill="#0E7BCB"/>
<path d="M23.6586 16.5854H25.3659C25.3659 15.6098 25.122 14.6341 24.8781 13.9024C24.6342 13.1707 24.8781 12.439 25.3659 11.7073L27.0732 10H29.7561L31.4635 11.7073C31.9513 12.1951 32.1952 13.1707 31.9513 13.9024C31.7074 14.1463 31.4635 14.6341 31.4635 14.878H27.8049V16.5854H31.9513H32.9269C32.9269 15.8537 33.1708 15.1219 33.4147 14.3902C33.9025 12.9268 33.6586 11.4634 32.683 10.4878L30.9757 8.78048V5.85366C30.9757 5.36585 30.4879 5.12195 30.2439 5.12195H26.8293C26.3415 5.12195 26.0976 5.60975 26.0976 5.85366V8.78048L23.9025 10.4878C22.9269 11.7073 22.683 13.1707 23.1708 14.3902C23.4147 15.1219 23.6586 15.8537 23.6586 16.5854ZM29.0244 6.58536V8.29268H27.3171V6.58536H29.0244Z" fill="#0E7BCB"/>
<path d="M10.7317 10.7317H15.6097C15.8536 10.7317 16.0975 10.7317 16.0975 10.4878L19.5122 7.56098L20.4878 12.6829L21.9512 12.439L20.7317 5.60976C20.7317 5.36585 20.4878 4.87805 20 4.87805H19.7561L19.0243 0.731707C19.0243 0.243902 18.7804 0 18.2926 0H13.4146C12.9268 0 12.439 0.243902 12.439 0.731707L11.7073 5.60976L9.26825 9.7561C9.26825 10 9.26825 10 9.26825 10.2439V12.6829H10.9756V10.7317H10.7317ZM13.9024 1.70732H17.5609L18.2926 5.36585C16.8292 6.34146 14.878 6.34146 13.4146 5.36585L13.9024 1.70732ZM12.6829 7.07317C13.6585 7.56098 14.6341 7.80488 15.8536 7.80488C16.3414 7.80488 16.5853 7.80488 17.0731 7.80488L15.3658 9.26829H11.4634L12.6829 7.07317Z" fill="#0E7BCB"/>
<path d="M16.0976 38.0488C16.3415 38.2927 16.8293 38.2927 17.0732 38.0488C17.3171 37.8049 17.561 37.561 17.561 37.3171L15.6098 23.9025C15.6098 22.9268 15.8537 21.9512 16.5854 21.2195C17.0732 20.4878 18.0488 20 19.0244 20H45.6098C46.0976 20 46.3415 20.4878 46.3415 20.7317C46.3415 20.9756 46.3415 21.7073 45.8537 21.7073H17.561V23.4147H43.9024L41.9512 38.2927L43.6585 38.5366L45.6098 23.4147C47.0732 23.4147 48.0488 22.1951 48.0488 20.9756C48.0488 19.7561 46.8293 18.5366 45.6098 18.5366H19.0244C17.561 18.5366 16.0976 19.2683 15.122 20.2439C14.1463 21.2195 13.9024 22.6829 13.9024 24.1464L15.6098 35.8537C13.6585 35.122 11.2195 35.122 9.26829 35.8537L10.2439 24.3903C10.4878 21.4634 12.439 18.7805 15.122 17.561C15.6098 17.3171 15.8537 17.3171 16.3415 17.3171V15.8537C15.8537 15.8537 15.3659 15.8537 14.6341 16.0976C11.2195 17.561 9.02439 20.7317 8.78049 24.3903L7.56098 37.3171V39.0244H7.31707C5.12195 39.2683 3.17073 38.5366 1.70732 37.0732L4.87805 25.6098C5.85366 21.7073 8.04878 18.2927 11.2195 15.6098C12.439 14.6342 14.1463 14.1464 15.6098 14.1464C17.3171 14.3903 18.7805 15.122 19.5122 16.5854L20 17.0732L21.4634 16.0976L20.9756 15.6098C19.7561 13.9025 17.8049 12.6829 15.8537 12.439C13.6585 12.1951 11.7073 12.9268 10 14.3903C6.82927 17.0732 4.39024 20.9756 3.41463 25.122L0 37.3171C0 37.561 0 37.8049 0.243902 38.0488C1.95122 40.2439 4.87805 41.4634 7.56098 40.9756L8.53659 40.7317C9.02439 40.7317 9.26829 40.2439 9.26829 40V38.0488C11.4634 36.8293 14.1463 36.8293 16.0976 38.0488Z" fill="#0E7BCB"/>
<path d="M49.0244 40H24.8781C24.3903 40 24.1464 40.4878 24.1464 40.7317V49.0244C24.1464 49.5122 24.6342 49.7561 24.8781 49.7561H49.0244C49.5122 49.7561 49.7561 49.2683 49.7561 49.0244V40.7317C50 40.2439 49.5122 40 49.0244 40ZM39.0244 48.2927H25.6098V41.7073H39.0244V48.2927ZM48.2927 48.2927H40.7317V41.7073H48.2927V48.2927Z" fill="#0E7BCB"/>
<path d="M29.0244 44.1464C29.0244 44.6342 28.5366 44.8781 28.2927 44.8781C27.8049 44.8781 27.561 44.3903 27.561 44.1464C27.561 43.9025 28.0488 43.4147 28.2927 43.4147C28.7805 43.1708 29.0244 43.6586 29.0244 44.1464Z" fill="#0E7BCB"/>
<path d="M32.4391 45.8536C32.4391 46.3414 31.9513 46.5853 31.7074 46.5853C31.2195 46.5853 30.9756 46.0975 30.9756 45.8536C30.9756 45.3658 31.4635 45.1219 31.7074 45.1219C32.1952 44.878 32.4391 45.3658 32.4391 45.8536Z" fill="#0E7BCB"/>
<path d="M37.5609 45.8537C37.5609 46.3415 37.0731 46.5854 36.8292 46.5854C36.5853 46.5854 36.0975 46.0976 36.0975 45.8537C36.0975 45.3658 36.5853 45.1219 36.8292 45.1219C37.0731 45.1219 37.5609 45.3658 37.5609 45.8537Z" fill="#0E7BCB"/>
<path d="M46.5854 44.1464C46.5854 44.6342 46.0976 44.8781 45.8537 44.8781C45.3658 44.8781 45.1219 44.3903 45.1219 44.1464C45.1219 43.9025 45.6098 43.4147 45.8537 43.4147C46.3415 43.1708 46.5854 43.6586 46.5854 44.1464Z" fill="#0E7BCB"/>
<path d="M44.1463 45.8536C44.1463 46.3414 43.6585 46.5853 43.4146 46.5853C42.9268 46.5853 42.6829 46.0975 42.6829 45.8536C42.6829 45.3658 43.1707 45.1219 43.4146 45.1219C43.6585 44.878 44.1463 45.3658 44.1463 45.8536Z" fill="#0E7BCB"/>
<path d="M34.8781 44.1464C34.8781 44.6342 34.3903 44.8781 34.1464 44.8781C33.6586 44.8781 33.4147 44.3903 33.4147 44.1464C33.4147 43.9025 33.9025 43.4147 34.1464 43.4147C34.6342 43.1708 34.8781 43.6586 34.8781 44.1464Z" fill="#0E7BCB"/>
<path d="M30.7317 38.2928H36.5854V37.5611C36.5854 37.3172 36.5854 37.3172 36.3415 37.0733C35.6098 35.8538 35.6098 34.1465 36.3415 32.927C36.5854 32.683 36.5854 32.4391 36.3415 32.1952L34.6342 28.7806C34.3903 28.5367 34.1464 28.2928 33.9025 28.2928V25.8538C33.9025 25.366 33.4147 25.1221 33.1708 25.1221H29.7561C29.2683 25.1221 29.0244 25.6099 29.0244 25.8538V28.2928C28.7805 28.2928 28.5366 28.5367 28.2927 28.7806L26.8293 32.1952C26.5854 32.4391 26.8293 32.683 26.8293 32.927C27.561 34.1465 27.561 35.8538 26.8293 37.0733C26.8293 37.3172 26.5854 37.3172 26.5854 37.5611V38.2928H28.2927V37.805C29.2683 36.0977 29.2683 34.1465 28.2927 32.4391L29.5122 30.0001H33.4147L34.1464 31.7074H30.4878V33.4148H34.1464C33.9025 34.3904 33.9025 35.6099 34.1464 36.8294H30.4878V38.2928H30.7317ZM30.7317 26.5855H32.4391V28.2928H30.7317V26.5855Z" fill="#0E7BCB"/>
</svg>
