<svg width="50" height="40" viewBox="0 0 50 40" fill="none" xmlns="http://www.w3.org/2000/svg">
<path d="M49.8263 33.2699C49.8263 36.4852 47.2166 39.101 44.0088 39.101C40.801 39.101 38.1913 36.4852 38.1913 33.2699C38.1913 30.0547 40.801 27.4389 44.0088 27.4389C47.2166 27.4389 49.8263 30.0547 49.8263 33.2699Z" fill="#0E7BCB"/>
<path d="M36.5602 33.2699C36.5602 31.3081 37.3213 29.4552 38.6806 28.0928C38.8437 27.9293 38.8437 27.6569 38.6806 27.4934L33.8961 23.3517C33.733 23.1882 33.4611 23.2427 33.298 23.4062C33.298 23.4062 33.298 23.4062 33.2436 23.4607L26.8824 32.616C26.0125 31.853 25.4688 30.7631 25.3057 29.6187C25.1426 27.0029 27.8611 24.1691 30.5252 21.4443C33.4611 18.4471 36.5058 15.3408 35.7446 12.071C35.1466 9.45522 32.2106 7.32988 26.6106 5.31353L28.0785 2.97021C28.1329 2.86122 28.1873 2.69773 28.1873 2.53424C27.9698 1.33533 27.0999 0.408902 25.9581 0.136422C24.7077 -0.245049 23.3484 0.190918 22.5873 1.22634C22.4785 1.38983 22.4241 1.55332 22.4241 1.7168V8.91026L8.45123 31.1991V31.2536L7.96189 30.9266C7.5813 30.6541 7.09199 30.7631 6.82015 31.1446C6.82015 31.1991 6.76577 31.1991 6.76577 31.2536L5.2978 34.1419H1.65506C1.27447 34.1419 0.893888 34.4144 0.839519 34.7958L0.0239783 38.1201C-0.0847604 38.556 0.187073 38.992 0.622028 39.101C0.676397 39.101 0.785149 39.101 0.839519 39.101H12.4746C12.9095 39.101 13.2901 38.774 13.3445 38.2836C13.3445 38.2291 13.3445 38.1201 13.3445 38.0656L12.5289 34.7413C12.4202 34.3599 12.094 34.0874 11.7134 34.0874H10.5173L10.7347 33.6514C10.8978 33.2699 10.7891 32.834 10.4629 32.5615L9.81046 32.1255L9.86482 32.0165L23.8377 9.7277C23.9465 9.61871 24.0009 9.50972 24.0552 9.40073L25.7407 6.67593C30.8514 8.4743 33.6786 10.3817 34.1679 12.3435C34.7116 14.6868 32.1019 17.3571 29.3834 20.1364C26.4475 23.0792 23.4572 26.1855 23.6746 29.5642C23.7834 31.4171 24.8708 33.1064 26.9368 34.6868L30.2533 37.1936C30.4164 37.3026 30.5796 37.3571 30.7427 37.3571H37.1039C37.3213 37.3571 37.5388 37.1936 37.5388 36.9757C37.5388 36.9212 37.5388 36.8122 37.4845 36.7577C36.8864 35.7223 36.5602 34.5233 36.5602 33.2699ZM24.1096 6.23996V1.98928C24.4902 1.60781 25.0339 1.49882 25.5232 1.66231C25.9038 1.7713 26.2844 2.04378 26.5018 2.37075L24.1096 6.23996Z" fill="#0E7BCB"/>
</svg>
