<svg width="39" height="39" viewBox="0 0 39 39" fill="none" xmlns="http://www.w3.org/2000/svg">
<path d="M35.6663 31.4441H29.5769C25.7167 31.4441 22.6177 28.3379 22.6177 24.4687C22.6177 20.5995 25.7167 17.4932 29.5769 17.4932H35.6663C36.1556 17.4932 36.5362 17.1117 36.5362 16.6213V14.0054C36.5362 12.1526 35.1226 10.6812 33.3284 10.5177L28.3264 1.74387C27.8371 0.926431 27.1303 0.381471 26.206 0.108992C25.3361 -0.108992 24.3575 0 23.5963 0.435967L6.46995 10.4632H3.47964C1.57671 10.4632 0 12.0436 0 13.951V34.8774C0 36.7847 1.57671 38.3651 3.47964 38.3651H33.1109C35.0139 38.3651 36.5906 36.7847 36.5906 34.8774V32.2616C36.5362 31.8256 36.1556 31.4441 35.6663 31.4441ZM29.4138 7.13896L31.3168 10.4632H23.705L29.4138 7.13896ZM9.9496 10.4632L24.4662 1.96185C24.8468 1.74387 25.3361 1.68937 25.7711 1.79837C26.206 1.90736 26.5866 2.17984 26.8041 2.6158L13.3205 10.4632H9.9496Z" fill="#0E7BCB"/>
<path d="M35.6663 19.1826H29.5769C26.6953 19.1826 24.3574 21.5259 24.3574 24.4142C24.3574 27.3024 26.6953 29.6458 29.5769 29.6458H35.6663C37.0799 29.6458 38.276 28.4469 38.276 27.03V21.7984C38.276 20.3815 37.1342 19.1826 35.6663 19.1826ZM29.5769 26.158C28.5982 26.158 27.8371 25.3951 27.8371 24.4142C27.8371 23.4332 28.5982 22.6703 29.5769 22.6703C30.5555 22.6703 31.3167 23.4332 31.3167 24.4142C31.3167 25.3951 30.5555 26.158 29.5769 26.158Z" fill="#1D46B0"/>
</svg>
