<svg width="50" height="50" viewBox="0 0 50 50" fill="none" xmlns="http://www.w3.org/2000/svg">
<path d="M16.9361 21.8758V14.3486C16.9361 14.1134 16.4656 13.6429 15.9952 13.6429H15.2895V9.64415C15.2895 8.70326 15.7599 7.99759 16.2304 7.29192C16.4656 7.29192 16.7008 7.05669 16.9361 6.82147V9.64415C16.9361 9.87937 16.9361 9.87937 17.1713 10.1146L18.8178 12.4668L20.2292 11.5259L18.3474 9.40893V6.35102H24.6984C25.1689 6.35102 25.4041 5.88058 25.4041 5.64536V0.940893C25.4041 0.470446 24.9336 0.235223 24.6984 0.235223H7.99759C7.99759 0 7.76236 0 7.76236 0L4.46924 1.64656C4.23402 1.88179 3.99879 2.11701 3.99879 2.35223V7.05669C3.99879 7.29192 4.23402 7.76236 4.46924 7.76236L8.93848 9.40893V13.6429H7.99759C7.52714 13.6429 7.29192 14.1134 7.29192 14.3486V21.8758C3.0579 23.7575 0 27.9916 0 32.9312V48.9264C0 49.3969 0.470446 49.6321 0.705669 49.6321H23.2871C23.7575 49.6321 23.9928 49.1616 23.9928 48.9264V32.9312C23.9928 27.9916 21.1701 23.7575 16.9361 21.8758ZM23.9928 4.70446H22.5814V1.64656H24.228V4.70446H23.9928ZM9.87937 7.99759L5.64535 6.58625V2.82268L8.23281 1.41134H20.9349V4.70446H18.5826C17.1713 4.70446 15.9952 5.41013 15.0543 6.35102C14.1134 7.29192 13.6429 8.46803 13.6429 9.64415V13.6429H10.3498V8.93848C10.3498 8.46803 10.1146 8.23281 9.87937 7.99759ZM15.2895 15.2895V16.9361H8.93848V15.2895H15.2895ZM8.93848 18.3474H15.2895V21.1701C14.1134 20.9349 13.1725 20.9349 11.9964 20.9349C10.8203 20.9349 9.87937 21.1701 8.70325 21.4053V18.3474H8.93848ZM22.5814 48.2207H1.64656V32.9312C1.64656 27.2859 6.35102 22.5814 11.9964 22.5814C17.6417 22.5814 22.3462 27.2859 22.3462 32.9312V48.2207H22.5814Z" fill="#0E7BCB"/>
<path d="M48.9264 11.9966H21.6405C21.17 11.9966 20.9348 12.467 20.9348 12.9375V17.6419C20.9348 18.1124 21.4053 18.3476 21.6405 18.3476H22.8166L24.2279 21.1703C24.4632 21.4055 24.6984 21.6407 24.9336 21.6407H31.2846V23.993C31.2846 24.4634 31.7551 24.6986 31.9903 24.6986H32.9312V47.28C32.9312 48.6914 34.1073 49.6323 35.2834 49.6323C36.6948 49.6323 37.6357 48.4562 37.6357 47.28V24.6986H38.3413C38.8118 24.6986 39.047 24.2282 39.047 23.993V21.6407H45.398C45.6332 21.6407 45.8685 21.4055 46.1037 21.1703L47.515 18.3476H48.6911C49.1616 18.3476 49.3968 17.8772 49.3968 17.6419V12.9375C49.8673 12.467 49.3968 11.9966 48.9264 11.9966ZM36.2243 47.28C36.2243 47.7505 35.7539 47.9857 35.5187 47.9857C35.0482 47.9857 34.813 47.5153 34.813 47.28V24.6986H36.4595V47.28H36.2243ZM37.6357 23.2873H32.9312V21.6407H37.6357V23.2873ZM45.1628 19.9942H25.4041L24.6984 18.3476H46.1037L45.1628 19.9942ZM48.2207 16.9363H22.5814V13.6431H48.2207V16.9363Z" fill="#0E7BCB"/>
<path d="M40.9288 5.64561C42.8106 5.64561 44.2219 7.05694 44.2219 8.93873C44.2219 9.40918 44.6924 9.6444 44.9276 9.6444C45.1628 9.6444 45.6333 9.17395 45.6333 8.93873C45.6333 7.05694 47.0446 5.64561 48.9264 5.64561C49.3968 5.64561 49.6321 5.17516 49.6321 4.93994C49.6321 4.46949 49.1616 4.23427 48.9264 4.23427C47.0446 4.23427 45.6333 2.82293 45.6333 0.941143C45.6333 0.470697 45.1628 0.235474 44.9276 0.235474C44.6924 0.235474 44.2219 0.70592 44.2219 0.941143C44.2219 2.82293 42.8106 4.23427 40.9288 4.23427C40.4584 4.23427 40.2231 4.70471 40.2231 4.93994C40.2231 5.17516 40.4584 5.64561 40.9288 5.64561ZM44.9276 3.5286C45.3981 3.99904 45.6333 4.46949 46.3389 4.93994C45.8685 5.41038 45.3981 5.64561 44.9276 6.35128C44.6924 5.64561 44.2219 5.17516 43.5163 4.70471C44.2219 4.46949 44.6924 3.99904 44.9276 3.5286Z" fill="#0E7BCB"/>
<path d="M28.9325 0.705811H27.2859V2.35237H28.9325V0.705811Z" fill="#0E7BCB"/>
<path d="M32.2255 0.705811H30.579V2.35237H32.2255V0.705811Z" fill="#0E7BCB"/>
<path d="M28.9325 3.99878H27.2859V5.64534H28.9325V3.99878Z" fill="#0E7BCB"/>
<path d="M32.2255 3.99878H30.579V5.64534H32.2255V3.99878Z" fill="#0E7BCB"/>
</svg>
